<svg width="39" height="24" viewBox="0 0 39 24" fill="none" xmlns="http://www.w3.org/2000/svg">
<path d="M15.7968 10.848C16.5936 10.4472 17.196 10.0008 17.6088 9.5184C18.3432 8.6496 18.7056 7.4976 18.7056 6.0696C18.7056 4.68 18.3432 3.492 17.6184 2.496C16.4088 0.873601 14.3616 0.0432 11.4672 0H0V23.4072H10.692C11.8968 23.4072 13.0128 23.304 14.0448 23.0928C15.0768 22.8792 15.9696 22.488 16.7256 21.9168C17.3976 21.42 17.9592 20.8032 18.4056 20.076C19.1112 18.9768 19.464 17.7312 19.464 16.344C19.464 15 19.1544 13.8552 18.54 12.9144C17.9184 11.9736 17.0064 11.2848 15.7968 10.848ZM4.7304 4.0656H9.8952C11.0304 4.0656 11.9664 4.188 12.7008 4.4304C13.5504 4.7832 13.9752 5.5008 13.9752 6.5952C13.9752 7.5768 13.6512 8.2632 13.0104 8.6496C12.3648 9.036 11.5272 9.2304 10.5 9.2304H4.7304V4.0656ZM12.8976 18.9336C12.3264 19.2096 11.5224 19.3464 10.4928 19.3464H4.7304V13.104H10.572C11.5896 13.1112 12.3816 13.2456 12.948 13.4976C13.956 13.9536 14.4576 14.7888 14.4576 16.0104C14.4576 17.4504 13.9392 18.42 12.8976 18.9336ZM24.5376 1.092H34.7064V4.0056H24.5376V1.092ZM38.2392 12.5904C38.028 11.2344 37.5624 10.0416 36.8376 9.012C36.0432 7.8456 35.0352 6.9912 33.8088 6.4512C32.5872 5.9088 31.212 5.6376 29.6808 5.64C27.1104 5.64 25.0224 6.444 23.4072 8.04C21.7968 9.6408 20.9904 11.9424 20.9904 14.9424C20.9904 18.1416 21.8808 20.4528 23.6712 21.8712C25.4544 23.292 27.5136 24 29.8512 24C32.6808 24 34.8816 23.1576 36.4536 21.4776C37.4592 20.4168 38.028 19.3728 38.1528 18.348H33.468C33.1968 18.8544 32.8824 19.2504 32.5224 19.5384C31.8696 20.0664 31.02 20.3304 29.9784 20.3304C28.9872 20.3304 28.1472 20.112 27.4464 19.6776C26.2896 18.9816 25.6848 17.7624 25.608 16.0272H38.3928C38.412 14.532 38.364 13.3824 38.2392 12.5904ZM25.7232 13.0392C25.8912 11.9136 26.2992 11.0208 26.9472 10.3608C27.5952 9.7032 28.512 9.372 29.6856 9.3696C30.768 9.3696 31.6728 9.6792 32.4096 10.3008C33.1368 10.9272 33.5472 11.8368 33.6312 13.0392H25.7232Z" fill="white" fill-opacity="0.8"/>
</svg>
