<svg width="605" height="162" viewBox="0 0 605 162" fill="none" xmlns="http://www.w3.org/2000/svg">
<path d="M14.68 18C18.16 16.02 22 15 25.72 15C30.64 15 33.94 18.54 38.8 18.18L40.36 22.62C33.58 22.62 31.78 18.12 25.66 16.86C22.18 16.14 18.46 16.62 15.04 18.54C6.88 23.22 4.78 34.8 10.42 44.52C16.12 54.18 27.28 58.14 35.38 53.52C37.48 52.32 39.1 50.76 40.36 48.84V50.52C39.04 51.9 37.48 53.04 35.68 54.06C25.3 60 12.1 56.82 6.34 46.86C0.52 36.9 4.3 24 14.68 18ZM65.5914 26.34C72.5514 26.34 79.3314 30.42 79.3314 38.58V57H68.5314V56.4H70.3914C72.7314 56.4 74.5914 54.54 74.5914 52.2V39.18C74.5914 33.78 72.3114 26.58 65.8314 27.18C59.4714 27.78 59.3514 34.32 53.9514 34.32V57H43.1514V56.4H44.9514C47.2914 56.4 49.1514 54.54 49.1514 52.2V19.8C49.1514 17.46 47.3514 15.6 44.9514 15.6H43.1514V14.94H53.9514V29.58C58.2714 29.58 58.4514 26.34 65.5914 26.34ZM114.647 28.62L115.907 33.42L93.227 47.4C97.067 53.76 104.567 58.2 111.707 54.3C114.827 52.62 115.487 51.72 115.907 51.06V52.26C114.767 53.28 113.507 54.12 112.067 54.84C103.607 59.16 92.867 56.82 88.067 49.56C83.327 42.3 86.387 32.82 94.907 28.56C105.227 23.34 107.987 29.04 114.647 28.62ZM92.927 46.86L114.767 33.3C110.087 32.34 104.327 23.88 95.987 28.92C89.327 32.94 89.447 40.68 92.927 46.86ZM146.569 54.3C149.689 52.62 150.409 51.72 150.769 51.06V52.26C149.689 53.28 148.429 54.12 146.989 54.84C138.469 59.16 127.729 56.82 122.929 49.56C118.249 42.3 121.309 32.82 129.829 28.56C140.149 23.34 142.849 29.04 149.509 28.62L150.769 33.42C145.909 33.84 139.909 23.52 130.909 28.92C117.049 37.26 132.469 62.04 146.569 54.3ZM164.342 14.82C164.342 28.62 164.342 43.02 164.342 56.82H153.542V56.22H155.462C157.682 56.22 159.662 54.3 159.662 52.02V19.56C159.662 17.28 157.682 15.48 155.462 15.48H153.542V14.82H164.342ZM180.062 56.94C177.302 49.26 181.202 43.5 168.722 39C164.462 37.5 166.922 34.98 169.382 33.66C173.042 31.74 182.042 31.86 178.202 26.28H182.942C186.242 32.82 169.262 32.28 169.622 35.82C169.682 36.6 170.462 37.44 171.902 38.4C179.762 43.92 182.402 51.6 184.562 56.94H180.062ZM224.587 15.66C219.187 15.72 216.307 18.18 216.307 21.42C216.427 33.06 246.067 38.22 240.727 50.64C239.287 54.06 235.387 56.82 230.107 57H227.647C220.327 56.76 212.347 54.42 210.067 55.2L208.867 50.64H208.927C215.467 50.64 222.547 56.58 229.807 56.46C235.267 56.34 238.087 53.88 238.087 50.64C237.967 39 208.327 33.84 213.667 21.42C215.107 18 219.007 15.24 224.287 15H226.747C234.127 15.3 242.107 17.64 244.387 16.86L245.587 21.42H245.527C238.927 21.42 231.847 15.48 224.587 15.66ZM279.355 33.42C283.495 40.62 280.435 50.1 272.275 54.6C264.175 59.16 254.215 57.06 249.895 49.92C245.755 42.84 248.875 33.36 256.975 28.8C265.075 24.24 275.155 26.28 279.355 33.42ZM271.975 54.06C277.855 50.76 279.235 42.6 275.215 35.76C271.135 28.92 263.155 26.04 257.275 29.28C251.455 32.58 250.015 40.8 254.095 47.64C258.115 54.48 266.155 57.3 271.975 54.06ZM331.391 26.34C338.291 26.34 345.131 30.42 345.131 38.58V57.06H334.331V56.4H336.191C338.531 56.4 340.391 54.54 340.391 52.2V39.18C340.391 33.78 338.111 26.58 331.631 27.18C325.691 27.78 324.251 33.48 319.691 34.26V57H308.891V56.4H310.751C313.091 56.4 314.951 54.54 314.951 52.2V39.18C314.951 33.78 312.671 26.58 306.191 27.18C299.831 27.78 299.711 34.32 294.311 34.32V57H283.511V56.4H285.311C287.651 56.4 289.511 54.54 289.511 52.2V31.14C289.511 28.86 287.651 27 285.311 27H283.511V26.34H294.311V29.58C298.631 29.58 298.691 26.34 305.951 26.34C309.491 26.34 313.031 27.42 315.671 29.58C317.651 31.2 320.231 29.88 322.271 29.04C324.551 28.2 325.931 26.34 331.391 26.34ZM380.487 28.62L381.747 33.42L359.067 47.4C362.907 53.76 370.407 58.2 377.547 54.3C380.667 52.62 381.327 51.72 381.747 51.06V52.26C380.607 53.28 379.347 54.12 377.907 54.84C369.447 59.16 358.707 56.82 353.907 49.56C349.167 42.3 352.227 32.82 360.747 28.56C371.067 23.34 373.827 29.04 380.487 28.62ZM358.767 46.86L380.607 33.3C375.927 32.34 370.167 23.88 361.827 28.92C355.167 32.94 355.287 40.68 358.767 46.86ZM439.081 33.42C443.221 40.62 440.161 50.1 432.001 54.6C423.901 59.16 413.941 57.06 409.621 49.92C405.481 42.84 408.601 33.36 416.701 28.8C424.801 24.24 434.881 26.28 439.081 33.42ZM431.701 54.06C437.581 50.76 438.961 42.6 434.941 35.76C430.861 28.92 422.881 26.04 417.001 29.28C411.181 32.58 409.741 40.8 413.821 47.64C417.841 54.48 425.881 57.3 431.701 54.06ZM449.898 21.06C449.898 24.42 451.638 26.34 454.038 26.34H462.378V27H454.038V57H443.238V56.4H445.158C447.438 56.4 449.358 54.54 449.358 52.2V27H443.238V26.34H449.358V22.32C449.358 17.64 451.638 14.94 455.898 14.94C461.658 14.94 461.358 16.26 465.198 14.94L466.818 19.74C463.398 19.74 462.018 15.72 455.898 15.6C451.758 15.6 449.898 18.36 449.898 21.06ZM527.363 25.26C533.123 35.16 529.403 48.12 518.903 54C508.523 60 495.383 56.82 489.503 46.86C483.803 36.84 487.523 24 497.963 18C508.343 12 521.483 15.3 527.363 25.26ZM518.663 53.52C526.763 48.84 528.803 37.2 523.223 27.6C517.583 17.94 506.423 13.86 498.203 18.48C490.103 23.22 488.063 34.8 493.643 44.46C499.283 54.18 510.443 58.14 518.663 53.52ZM559.018 26.34H569.818V57H569.218C567.058 50.34 557.458 57.24 552.418 56.94C545.878 56.58 539.638 52.56 539.638 44.76V31.14C539.638 28.86 537.838 27 535.438 27H533.638V26.34H544.438V44.22C544.438 49.26 546.418 55.98 552.058 56.16C556.858 56.46 560.218 53.46 565.078 53.46V31.14C565.078 28.86 563.218 27 560.938 27H559.018V26.34ZM601.643 26.34L603.263 31.02C599.843 31.14 598.463 27.12 592.343 27C588.263 27 586.403 29.64 586.343 32.28V57H575.543V56.4H577.343C579.683 56.4 581.543 54.54 581.543 52.2V31.14C581.543 28.86 579.683 27 577.343 27H575.543V26.34H586.343V30.12C587.243 27.72 589.343 26.34 592.283 26.34C598.103 26.34 597.803 27.6 601.643 26.34ZM13.24 96V137.46C26.2 137.46 29.44 131.64 39.16 133.32L37.48 138C30.76 135.54 21.7 138 13.24 138H2.44V137.46H4.24C6.58 137.46 8.44 135.54 8.44 133.26V100.8C8.44 98.52 6.58 96.66 4.24 96.66H2.44V96H13.24ZM59.1634 107.34C65.6434 107.34 70.3834 111.48 70.3834 118.02V138H69.8434C67.3234 134.52 58.9234 137.94 52.3834 138C40.9834 138.12 40.0234 126.36 49.2034 121.74C55.8634 118.38 65.7034 117 64.1434 109.98C60.0634 103.62 49.2034 113.04 43.0234 113.04L44.0434 108.3C46.2034 108.84 54.2434 107.34 59.1634 107.34ZM65.7034 135.9V117.9C65.7034 114.66 65.2834 112.38 64.5634 110.82C66.1234 118.44 56.7634 121.26 51.5434 124.2C45.3634 127.86 47.0434 136.56 54.7834 136.92C58.1434 137.04 62.2834 135.6 65.7034 135.9ZM86.043 137.4C92.283 137.22 93.603 133.26 97.083 133.26L95.403 138C91.563 136.74 91.863 138 86.043 137.94C81.903 137.94 79.503 135.24 79.503 130.62C79.503 123.06 79.503 115.56 79.503 108H73.503V107.34H79.503V100.74C79.503 98.46 77.703 96.6 75.303 96.6H73.503V95.94H84.303V107.34H92.643V108H84.303V126.66C81.843 126.66 80.103 128.58 80.103 131.88C80.103 134.64 81.963 137.4 86.043 137.4ZM128.417 109.62L129.677 114.42L106.997 128.4C110.837 134.76 118.337 139.2 125.477 135.3C128.597 133.62 129.257 132.72 129.677 132.06V133.26C128.537 134.28 127.277 135.12 125.837 135.84C117.377 140.16 106.637 137.82 101.837 130.56C97.0966 123.3 100.157 113.82 108.677 109.56C118.997 104.34 121.757 110.04 128.417 109.62ZM106.697 127.86L128.537 114.3C123.857 113.34 118.097 104.88 109.757 109.92C103.097 113.94 103.217 121.68 106.697 127.86ZM141.311 112.02C141.431 120.54 170.051 123.06 164.711 133.32C163.451 135.84 158.171 138.06 153.491 138.06H151.271C144.791 137.82 137.831 136.02 135.731 136.68C135.671 136.32 134.171 131.88 134.351 131.88C140.111 131.88 146.831 137.46 153.251 137.4C157.991 137.34 160.511 135.66 160.511 133.32C160.391 124.86 131.711 122.52 137.111 112.02C138.371 109.56 143.651 107.34 148.331 107.34H150.551C157.031 107.58 163.991 109.26 166.031 108.72L167.591 113.46C161.411 113.46 155.171 107.82 148.571 108C143.771 108.06 141.311 109.62 141.311 112.02ZM183.25 137.4C189.49 137.22 190.81 133.26 194.29 133.26L192.61 138C188.77 136.74 189.07 138 183.25 137.94C179.11 137.94 176.71 135.24 176.71 130.62C176.71 123.06 176.71 115.56 176.71 108H170.71V107.34H176.71V100.74C176.71 98.46 174.91 96.6 172.51 96.6H170.71V95.94H181.51V107.34H189.85V108H181.51V126.66C179.05 126.66 177.31 128.58 177.31 131.88C177.31 134.64 179.17 137.4 183.25 137.4ZM253.588 102.42V100.8C253.588 98.52 251.728 96.66 249.448 96.66H247.528V96H254.248V122.7C254.248 124.14 254.008 125.58 253.588 126.9C251.728 133.32 245.848 138.06 238.888 138.06C234.808 138.06 231.028 136.38 228.268 133.74C225.328 130.98 223.588 127.08 223.588 122.7V100.8C223.588 98.52 221.608 96.66 219.388 96.66H217.468V96H228.268V122.4C228.268 124.86 228.208 137.46 238.888 137.46C246.988 137.46 253.588 130.86 253.588 122.7V102.42ZM275.141 107.46C300.821 107.52 295.961 137.64 277.541 138.12C272.681 138.18 270.341 134.46 267.461 134.94V149.4H256.661V148.86H258.521C260.801 148.86 262.781 147 262.781 144.66V107.46H263.321C265.181 110.64 271.901 107.46 275.141 107.46ZM282.701 135.84C294.941 129.3 286.061 111.36 274.841 108.72C271.901 108.06 270.521 109.2 267.461 109.5V130.14C273.101 130.14 274.001 140.4 282.701 135.84ZM317.867 95.94H328.667V138H328.067C326.207 134.82 319.427 138 316.247 138C290.507 137.94 295.367 107.82 313.787 107.34C318.707 107.28 320.987 111 323.927 110.58V100.8C323.927 98.46 322.067 96.6 319.727 96.6H317.867V95.94ZM323.927 135.96V115.32C318.227 115.32 317.387 105.06 308.747 109.62C296.447 116.1 305.267 134.1 316.547 136.74C319.427 137.4 320.867 136.26 323.927 135.96ZM352.249 107.34C358.729 107.34 363.469 111.48 363.469 118.02V138H362.929C360.409 134.52 352.009 137.94 345.469 138C334.069 138.12 333.109 126.36 342.289 121.74C348.949 118.38 358.789 117 357.229 109.98C353.149 103.62 342.289 113.04 336.109 113.04L337.129 108.3C339.289 108.84 347.329 107.34 352.249 107.34ZM358.789 135.9V117.9C358.789 114.66 358.369 112.38 357.649 110.82C359.209 118.44 349.849 121.26 344.629 124.2C338.449 127.86 340.129 136.56 347.869 136.92C351.229 137.04 355.369 135.6 358.789 135.9ZM379.129 137.4C385.369 137.22 386.689 133.26 390.169 133.26L388.489 138C384.649 136.74 384.949 138 379.129 137.94C374.989 137.94 372.589 135.24 372.589 130.62C372.589 123.06 372.589 115.56 372.589 108H366.589V107.34H372.589V100.74C372.589 98.46 370.789 96.6 368.389 96.6H366.589V95.94H377.389V107.34H385.729V108H377.389V126.66C374.929 126.66 373.189 128.58 373.189 131.88C373.189 134.64 375.049 137.4 379.129 137.4ZM421.503 109.62L422.763 114.42L400.083 128.4C403.923 134.76 411.423 139.2 418.563 135.3C421.683 133.62 422.343 132.72 422.763 132.06V133.26C421.623 134.28 420.362 135.12 418.923 135.84C410.463 140.16 399.723 137.82 394.923 130.56C390.183 123.3 393.243 113.82 401.763 109.56C412.083 104.34 414.843 110.04 421.503 109.62ZM399.783 127.86L421.623 114.3C416.943 113.34 411.183 104.88 402.843 109.92C396.183 113.94 396.303 121.68 399.783 127.86ZM458.437 137.46H469.837C480.877 137.46 484.717 117.72 470.077 113.28C464.437 111.54 458.377 113.82 458.437 119.76V137.46ZM447.637 138.06V137.46H449.437C451.777 137.46 453.637 135.54 453.637 133.26V100.8C453.637 98.52 451.777 96.66 449.437 96.66H447.637V96H467.557C479.797 96 481.837 109.26 471.757 111.96C486.037 110.4 490.417 138.06 474.037 138.06H447.637ZM458.437 96.66V116.52C461.557 108.48 473.437 114.42 473.437 104.34C473.437 99 469.057 96.66 464.437 96.66H458.437ZM493.356 95.94H498.156C498.156 109.98 498.156 124.02 498.156 138H487.356V137.4H489.156C491.496 137.4 493.356 135.54 493.356 133.2V100.8C493.356 98.46 491.496 96.6 489.156 96.6H487.356V95.94H493.356ZM536.523 114.42C540.663 121.62 537.603 131.1 529.443 135.6C521.343 140.16 511.382 138.06 507.063 130.92C502.923 123.84 506.043 114.36 514.143 109.8C522.243 105.24 532.323 107.28 536.523 114.42ZM529.143 135.06C535.023 131.76 536.403 123.6 532.383 116.76C528.303 109.92 520.323 107.04 514.443 110.28C508.623 113.58 507.183 121.8 511.263 128.64C515.283 135.48 523.323 138.3 529.143 135.06ZM548.917 137.52C545.617 142.68 573.457 137.7 573.457 146.04C573.457 148.32 570.097 149.82 563.797 150C559.717 150.18 549.817 147.42 547.537 148.74C547.477 148.38 545.977 144 546.157 144C551.917 144 558.157 149.58 563.797 149.46C566.497 149.4 568.597 147.72 568.717 146.04C568.957 139.56 544.717 143.64 548.377 137.16C548.677 136.74 549.097 136.32 549.697 135.9C548.077 134.76 546.757 133.32 545.677 131.58C541.417 124.38 544.537 114.96 552.697 110.4C556.777 108.06 561.397 107.46 565.477 108.42C569.257 109.02 572.797 109.98 575.797 107.94L576.877 111.9C574.837 111.9 572.797 111.3 570.757 110.64C572.497 111.78 573.937 113.22 575.017 115.08C579.277 122.22 576.097 131.64 567.997 136.2C562.117 139.5 555.217 139.32 550.297 136.26C549.697 136.62 549.157 137.04 548.917 137.52ZM553.057 110.94C547.177 114.24 545.677 122.4 549.757 129.24C553.837 136.08 561.877 139.02 567.697 135.72C573.517 132.42 574.957 124.2 570.877 117.36C566.857 110.52 558.877 107.7 553.057 110.94Z" fill="white"/>
</svg>
