<svg width="367" height="244" viewBox="0 0 367 244" fill="none" xmlns="http://www.w3.org/2000/svg">
<g clip-path="url(#clip0_32_333)">
<path d="M335.789 198.941C366.591 166.607 366.591 114.184 335.789 81.8499C304.987 49.5163 255.048 49.5163 224.246 81.8499C193.445 114.184 193.445 166.607 224.246 198.941C255.048 231.274 304.987 231.274 335.789 198.941Z" fill="#9C7339"/>
<path d="M99.2875 169.722C83.58 169.723 68.2252 164.833 55.1648 155.673C42.1044 146.512 31.925 133.492 25.9139 118.258C19.9029 103.025 18.3302 86.2619 21.3946 70.09C24.4591 53.918 32.0231 39.0632 43.1301 27.404C58.024 11.7693 78.2244 2.98584 99.2875 2.98584C120.351 2.98584 140.551 11.7693 155.445 27.404C170.339 43.0387 178.706 64.2438 178.706 86.3546C178.706 108.465 170.339 129.671 155.445 145.305C148.087 153.07 139.335 159.226 129.696 163.417C120.056 167.608 109.721 169.751 99.2875 169.722ZM99.2875 4.13119C56.0957 4.13119 20.96 41.0182 20.96 86.3546C20.96 131.691 56.0957 168.578 99.2875 168.578C142.479 168.578 177.615 131.691 177.615 86.3546C177.615 41.0182 142.476 4.13119 99.2875 4.13119Z" fill="#181818"/>
<path d="M300.719 129.913C300.139 128.679 299.249 127.635 298.143 126.895C297.038 126.155 295.761 125.748 294.45 125.717C290.584 125.622 284.948 125.408 281.332 124.92C267.774 123.085 251.4 122.086 231.661 121.647C231.628 121.647 231.594 121.653 231.563 121.666C231.532 121.679 231.503 121.699 231.479 121.723L231.247 121.933V121.609C230.978 113.095 230.796 105.847 230.669 98.8054V98.7787V98.752C231.627 95.9512 231.877 92.9377 231.396 90.0051V89.9632L231.414 89.9212C233.322 84.8097 243.09 50.4441 244.685 44.5963C245.601 41.2796 246.184 37.871 246.422 34.4266V34.3312L246.487 34.2893C248.504 32.9732 249.725 30.757 250.216 27.5146C250.579 25.1114 250.357 22.445 249.489 19.1225C249.176 17.9056 248.813 16.7002 248.457 15.533C248.021 14.091 247.57 12.6034 247.221 11.1157C247.21 11.0675 247.187 11.023 247.156 10.986L247.13 10.9555V10.9173C246.64 8.59805 244.412 6.62209 241.836 6.21393C238.929 5.75618 235.956 6.9387 233.565 7.88853C194.541 23.3986 113.209 55.4717 110.905 56.3795H110.858C110.793 56.4051 110.739 56.4537 110.705 56.5169C107.751 62.0061 107.275 67.1252 109.404 70.566C109.904 71.3733 110.551 72.068 111.309 72.6096C112.067 73.1513 112.921 73.5289 113.819 73.7206L113.936 73.7474V73.8694C114.019 80.5259 116.188 86.4576 119.891 90.1806C122.878 93.175 126.745 94.6933 131.378 94.6933H131.956H132.21L135.241 108.544C135.626 110.31 136.113 112.111 136.582 113.846C138.904 122.425 141.095 130.527 132.348 136.39C127.003 139.972 120.836 141.38 114.869 142.742C109.328 144.008 103.605 145.317 98.4808 148.349C91.809 152.305 85.4753 159.953 86.3728 168.12C86.8888 172.827 88.8911 177.176 90.8279 181.384C92.1833 184.328 93.5824 187.365 94.4436 190.477C95.0323 192.606 95.5519 194.761 96.1006 197.046C98.1646 205.606 100.294 214.486 106.108 220.838C111.032 226.239 117.526 228.33 123.801 230.374C126.454 231.229 129.194 232.11 131.796 233.231C142.447 237.809 154.544 241.078 166.782 242.642C172.466 243.367 178.187 243.731 183.912 243.733C190.273 243.747 196.625 243.266 202.917 242.295C214.477 240.479 224.383 233.483 233.958 226.716L234.212 226.537C237.439 224.248 240.688 221.91 243.827 219.636L243.856 219.617C249.507 215.528 255.347 211.301 261.226 207.376L262.963 206.232C272.168 200.102 281.688 193.762 288.008 184.042C294.41 174.193 299.956 156.089 301.925 143.909C302.717 139.003 301.925 134.647 301.925 132.812C301.9 132.515 301.358 131.279 300.719 129.913Z" fill="#181818"/>
<path d="M123.431 60.4229C125.858 59.1222 128.071 57.3713 130.589 56.2918C147.828 51.432 150.979 66.9726 179.396 47.3389C187.753 41.5675 195.893 34.9224 205.559 32.1264C211.711 30.3449 218.587 30.0588 223.583 25.8933C226.388 23.5321 228.467 20.0265 231.839 18.6075C234.546 17.4631 237.595 17.8979 240.491 17.5317C243.388 17.1655 246.607 15.4223 246.938 12.3782C247.25 9.46771 244.576 6.96153 241.818 6.52667C239.06 6.0918 236.302 7.14463 233.692 8.1822C194.047 23.9212 110.963 56.6847 110.963 56.6847C110.963 56.6847 112.373 66.3432 123.431 60.4229Z" fill="#9C7339"/>
<path d="M117.133 62.9178C116.052 62.9358 114.983 62.6806 114.015 62.1739C111.007 60.5566 110.447 56.9251 110.425 56.7687L110.77 56.1469C111.603 55.8188 194.313 23.2041 233.478 7.64444C235.898 6.68316 238.907 5.4892 241.88 5.95839C244.852 6.42758 247.828 9.15501 247.465 12.4432C247.101 15.7962 243.726 17.6997 240.56 18.1002C239.561 18.2261 238.544 18.2604 237.559 18.2948C235.6 18.3558 233.754 18.4168 232.046 19.1378C230.015 19.9999 228.478 21.6669 226.854 23.4292C225.946 24.4652 224.975 25.4374 223.947 26.3397C220.211 29.4334 215.487 30.448 210.905 31.4322C209.175 31.8137 207.387 32.1951 205.69 32.6796C197.816 34.9683 190.835 39.9273 184.087 44.726C182.633 45.7445 181.18 46.8012 179.694 47.8158C161.488 60.404 153.446 58.6569 145.674 56.9709C141.175 56.0019 136.93 55.0903 130.775 56.8183C129.338 57.494 127.95 58.278 126.621 59.1642C125.676 59.7593 124.695 60.3773 123.689 60.9189C121.207 62.254 119.019 62.9178 117.133 62.9178ZM111.599 57.0433C111.839 57.9741 112.58 60.1179 114.506 61.1593C116.61 62.2846 119.524 61.865 123.169 59.9119C124.143 59.3931 125.106 58.7675 126.036 58.1953C127.421 57.2755 128.867 56.4622 130.364 55.7616L130.433 55.7387C136.865 53.923 141.447 54.911 145.877 55.8646C153.435 57.4896 161.252 59.1719 179.079 46.8584C180.533 45.8513 182.026 44.7947 183.44 43.7762C190.264 38.924 197.321 33.9079 205.367 31.5695C207.096 31.066 208.906 30.6769 210.654 30.3031C215.124 29.3723 219.728 28.3653 223.231 25.4433C224.227 24.5722 225.169 23.6344 226.05 22.6358C227.682 20.862 229.368 19.0272 231.618 18.0583C233.504 17.261 235.535 17.1923 237.501 17.1313C238.464 17.097 239.459 17.0665 240.408 16.9482C243.079 16.6087 246.084 15.0104 246.378 12.2944C246.658 9.69669 244.147 7.45752 241.716 7.07225C239.027 6.64502 236.283 7.73599 233.867 8.69726C196.188 23.6848 118.223 54.4303 111.599 57.0433Z" fill="#9C7339"/>
<path d="M234.325 23.7421C232.736 23.7461 231.172 23.3317 229.775 22.5367C229.653 22.4611 229.564 22.3388 229.527 22.1956C229.489 22.0524 229.506 21.8995 229.574 21.7692C229.642 21.6389 229.756 21.5415 229.891 21.4975C230.026 21.4535 230.172 21.4664 230.298 21.5334C232.148 22.5681 234.293 22.8615 236.333 22.359C238.374 21.8565 240.171 20.5924 241.389 18.8022C241.428 18.7362 241.479 18.6793 241.54 18.6348C241.601 18.5904 241.669 18.5593 241.742 18.5436C241.814 18.5279 241.889 18.5278 241.961 18.5433C242.034 18.5589 242.102 18.5898 242.163 18.6341C242.224 18.6784 242.275 18.7352 242.315 18.8011C242.354 18.867 242.38 18.9406 242.391 19.0173C242.402 19.0941 242.398 19.1724 242.38 19.2476C242.361 19.3227 242.328 19.3931 242.283 19.4545C241.381 20.7861 240.187 21.8706 238.802 22.6167C237.417 23.3629 235.881 23.7488 234.325 23.7421Z" fill="#9C7339"/>
<path d="M206.929 110.76C195.432 110.76 182.524 108.265 172.531 104.039C158.752 98.2141 147.545 88.5288 140.971 76.7685C138.275 71.9336 136.274 66.7071 135.034 61.2584C134.628 59.4689 134.313 57.6583 134.089 55.834C134.08 55.7589 134.084 55.6825 134.103 55.6094C134.122 55.5362 134.154 55.4677 134.198 55.4076C134.242 55.3476 134.297 55.2972 134.36 55.2595C134.422 55.2217 134.491 55.1972 134.563 55.1874C134.635 55.1777 134.707 55.1828 134.777 55.2025C134.847 55.2223 134.912 55.2562 134.969 55.3024C135.026 55.3487 135.074 55.4063 135.11 55.4719C135.146 55.5376 135.17 55.6101 135.179 55.6852C135.404 57.4697 135.717 59.2408 136.116 60.9913C137.332 66.3297 139.291 71.4507 141.931 76.1886C148.381 87.7316 159.402 97.2452 172.956 102.975C183.723 107.529 197.914 110.051 209.989 109.555C218.572 109.204 224.615 106.713 227.955 102.147C231.952 96.6959 230.589 90.1195 230.575 90.0547L230.6 89.7113C232.377 85.1071 242.257 50.3448 243.893 44.3445C246.197 35.9066 246.316 27.9418 244.311 15.9296C244.286 15.7779 244.32 15.6221 244.405 15.4965C244.49 15.371 244.618 15.286 244.763 15.2602C244.908 15.2344 245.056 15.2699 245.176 15.359C245.295 15.448 245.376 15.5833 245.401 15.7351C247.436 27.9418 247.308 36.0401 244.957 44.6611C243.333 50.6004 233.631 84.7486 231.687 89.9784C231.897 91.1227 232.802 97.4206 228.834 102.841C225.287 107.689 218.968 110.333 210.047 110.699C209.001 110.741 207.968 110.76 206.929 110.76Z" fill="#9C7339"/>
<path d="M246.255 34.6631C246.136 34.6613 246.021 34.6194 245.928 34.5436C245.834 34.4677 245.766 34.362 245.734 34.2422C245.702 34.1224 245.708 33.995 245.751 33.879C245.793 33.7631 245.871 33.6647 245.971 33.5988C247.828 32.4239 248.918 30.4403 249.391 27.3848C249.754 25.0961 249.514 22.5556 248.693 19.3742C248.388 18.184 248.021 16.9824 247.672 15.8228C247.229 14.3695 246.774 12.8627 246.418 11.3445C246.403 11.2068 246.435 11.0679 246.51 10.9535C246.584 10.8392 246.696 10.7571 246.824 10.7226C246.952 10.6881 247.087 10.7035 247.205 10.766C247.323 10.8284 247.415 10.9337 247.465 11.0622C247.828 12.5423 248.261 14.0261 248.693 15.4642C249.056 16.6353 249.42 17.8484 249.729 19.0614C250.593 22.422 250.819 25.1266 250.455 27.5679C249.943 30.9362 248.638 33.2288 246.527 34.5829C246.445 34.6342 246.351 34.6618 246.255 34.6631Z" fill="#9C7339"/>
<path d="M238.645 28.1097H238.584C235.78 27.7767 233.045 26.9784 230.48 25.7447C230.415 25.7136 230.357 25.6695 230.308 25.6147C230.26 25.5599 230.222 25.4956 230.197 25.4255C230.172 25.3554 230.16 25.2808 230.163 25.2059C230.165 25.1311 230.182 25.0575 230.211 24.9894C230.241 24.9213 230.283 24.8599 230.335 24.8089C230.387 24.7578 230.448 24.7181 230.515 24.6918C230.582 24.6656 230.653 24.6535 230.724 24.6561C230.796 24.6587 230.866 24.6761 230.931 24.7071C233.393 25.8866 236.018 26.6513 238.707 26.973C238.852 26.9816 238.987 27.0501 239.084 27.1635C239.18 27.2769 239.23 27.4258 239.221 27.5776C239.213 27.7294 239.148 27.8715 239.04 27.9727C238.932 28.0739 238.79 28.126 238.645 28.1174V28.1097Z" fill="#9C7339"/>
<path d="M218.052 54.3541C209.775 54.3541 204.829 53.2593 203.023 51.0469C202.653 50.5801 202.399 50.0242 202.284 49.4289C202.169 48.8337 202.197 48.2178 202.365 47.6366C202.649 46.2634 203.012 44.8062 203.397 43.2651C204.062 40.5949 204.753 37.8217 205.014 35.491C205.023 35.4159 205.045 35.3432 205.08 35.2771C205.115 35.2111 205.162 35.1529 205.219 35.106C205.275 35.059 205.34 35.0242 205.409 35.0036C205.479 34.9829 205.551 34.9768 205.623 34.9856C205.694 34.9943 205.764 35.0178 205.827 35.0547C205.89 35.0915 205.945 35.141 205.99 35.2004C206.034 35.2597 206.068 35.3277 206.087 35.4005C206.107 35.4732 206.113 35.5494 206.104 35.6245C205.832 38.0353 205.134 40.8391 204.458 43.5512C204.095 45.0771 203.731 46.5304 203.437 47.877C203.277 48.6399 203.179 49.4753 203.855 50.303C205.309 52.0654 210.396 53.9498 226.585 52.9008C226.728 52.8934 226.869 52.9457 226.977 53.0463C227.084 53.147 227.149 53.2878 227.159 53.4386C227.164 53.5136 227.154 53.5889 227.131 53.6601C227.109 53.7312 227.072 53.7969 227.025 53.8533C226.978 53.9097 226.92 53.9557 226.856 53.9887C226.791 54.0216 226.722 54.0408 226.65 54.0451C223.462 54.2511 220.596 54.3541 218.052 54.3541Z" fill="#9C7339"/>
<path d="M227.086 54.0451C226.781 54.0451 226.476 54.0451 226.181 54.0451C225.388 54.024 224.619 53.7525 223.975 53.266C223.33 52.7795 222.841 52.1006 222.569 51.3176C220.302 44.7871 221.116 27.9228 221.163 27.2095C221.171 27.0577 221.235 26.9154 221.343 26.8138C221.451 26.7122 221.593 26.6597 221.737 26.6678C221.882 26.6759 222.017 26.7439 222.114 26.8569C222.211 26.97 222.261 27.1187 222.253 27.2705C222.253 27.4421 221.403 44.6154 223.594 50.9209C223.792 51.4888 224.148 51.981 224.616 52.3335C225.084 52.6859 225.642 52.8822 226.218 52.8969C229.666 53.0151 232.032 52.4391 232.493 51.371C233.042 49.8452 229.866 32.2561 227.737 21.5295C227.717 21.4543 227.712 21.3757 227.723 21.2985C227.733 21.2214 227.758 21.1472 227.797 21.0807C227.836 21.0141 227.887 20.9565 227.947 20.9115C228.008 20.8665 228.077 20.8349 228.149 20.8188C228.222 20.8027 228.297 20.8023 228.37 20.8177C228.443 20.8331 228.512 20.8639 228.573 20.9083C228.634 20.9527 228.686 21.0098 228.725 21.0759C228.764 21.1421 228.79 21.2159 228.801 21.293C229.746 26.0346 234.394 49.7918 233.482 51.8555C232.686 53.6178 229.735 54.0451 227.086 54.0451Z" fill="#9C7339"/>
<path d="M218.677 54.3465C218.565 54.3457 218.456 54.3086 218.365 54.2403C218.274 54.172 218.205 54.0759 218.167 53.965C218.13 53.8541 218.126 53.7338 218.156 53.6205C218.187 53.5072 218.249 53.4064 218.336 53.3318C218.487 53.2018 218.606 53.0363 218.684 52.8487C218.763 52.6611 218.798 52.4568 218.786 52.2523C218.757 51.5962 218.314 50.9172 217.569 50.387C215.418 48.8611 209.626 47.6329 207.994 49.8224C207.84 49.9933 207.734 50.2057 207.688 50.4359C207.641 50.6662 207.657 50.9054 207.732 51.127C207.998 51.8556 208.917 52.5041 209.967 52.7024C210.112 52.7292 210.24 52.8152 210.324 52.9415C210.408 53.0678 210.441 53.224 210.416 53.3757C210.39 53.5275 210.308 53.6624 210.188 53.7507C210.068 53.8391 209.919 53.8736 209.775 53.8468C208.346 53.576 207.115 52.6528 206.715 51.5581C206.573 51.1522 206.537 50.7138 206.611 50.2884C206.685 49.8631 206.867 49.4664 207.136 49.1396C209.378 46.1299 215.988 47.9037 218.18 49.46C219.23 50.223 219.829 51.188 219.873 52.2256C219.892 52.6085 219.826 52.9907 219.678 53.3414C219.53 53.692 219.306 54.0011 219.023 54.2435C218.921 54.3165 218.8 54.3526 218.677 54.3465Z" fill="#9C7339"/>
<path d="M216.991 72.0956C214.055 72.0956 210.737 71.6569 207.242 71.1992C202.881 70.6232 198.35 70.0281 194.738 70.3828L194.538 69.2652C200.915 67.3579 213.714 63.4937 213.841 63.4556L214.266 63.5128L217.954 65.7596L221.243 63.5242H221.824L230.836 69.3338L230.658 70.3828C230.582 70.3828 223.191 71.9392 217.765 72.0918C217.511 72.0943 217.253 72.0956 216.991 72.0956ZM198.822 69.1736C201.547 69.2957 204.487 69.6848 207.362 70.0624C211.126 70.5583 214.684 71.0237 217.722 70.9398C221.654 70.8292 226.657 69.9709 229.045 69.5246L221.53 64.68L218.26 66.9116H217.689L213.917 64.6228C212.522 65.0615 204.858 67.3846 198.837 69.1889L198.822 69.1736Z" fill="#9C7339"/>
<path d="M216.995 79.576C211.908 79.576 207.016 76.7112 202.678 74.1745C199.734 72.4542 196.958 70.833 194.592 70.3943C194.448 70.368 194.319 70.2825 194.235 70.1566C194.15 70.0307 194.117 69.8747 194.142 69.7229C194.167 69.5712 194.248 69.4361 194.368 69.3474C194.488 69.2587 194.637 69.2236 194.781 69.2499C197.325 69.7229 200.185 71.3937 203.208 73.1599C211.504 78.012 220.905 83.5088 230.099 69.4902C230.138 69.4257 230.189 69.3702 230.25 69.327C230.31 69.2837 230.378 69.2536 230.45 69.2385C230.521 69.2234 230.595 69.2236 230.667 69.2389C230.738 69.2543 230.806 69.2847 230.866 69.3281C230.926 69.3716 230.978 69.4273 231.017 69.492C231.056 69.5567 231.083 69.6289 231.095 69.7045C231.107 69.7802 231.104 69.8575 231.087 69.9321C231.07 70.0067 231.039 70.077 230.996 70.1387C226.363 77.2262 221.603 79.576 216.995 79.576Z" fill="#9C7339"/>
<path d="M206.039 98.7101C205.896 98.7101 205.758 98.6509 205.656 98.5452C205.554 98.4396 205.496 98.296 205.494 98.1455C205.439 93.4994 207.311 89.3071 210.541 86.9268C216.286 82.6812 224.183 84.2223 229.463 87.6325C229.585 87.7121 229.673 87.8395 229.706 87.9868C229.74 88.1341 229.716 88.2893 229.641 88.4183C229.604 88.4825 229.555 88.5383 229.497 88.5824C229.439 88.6266 229.373 88.6583 229.304 88.6757C229.234 88.6931 229.162 88.6958 229.091 88.6837C229.021 88.6716 228.953 88.6449 228.892 88.6053C223.917 85.3934 216.508 83.9171 211.17 87.8652C208.263 90.0243 206.537 93.8618 206.584 98.1303C206.585 98.2054 206.572 98.28 206.545 98.3498C206.519 98.4196 206.479 98.4833 206.429 98.5371C206.38 98.591 206.32 98.634 206.254 98.6636C206.188 98.6933 206.118 98.7091 206.046 98.7101H206.039Z" fill="#9C7339"/>
<path d="M213.993 64.5925C213.949 64.5979 213.904 64.5979 213.859 64.5925C213.719 64.5547 213.599 64.4606 213.525 64.3307C213.451 64.2007 213.429 64.0454 213.463 63.8982L215.872 53.7858C215.889 53.7129 215.92 53.6443 215.963 53.584C216.006 53.5236 216.059 53.4727 216.121 53.4341C216.182 53.3955 216.25 53.3699 216.321 53.3589C216.392 53.3479 216.464 53.3517 216.533 53.37C216.603 53.3883 216.668 53.4207 216.726 53.4655C216.783 53.5103 216.832 53.5665 216.868 53.631C216.905 53.6955 216.93 53.7669 216.94 53.8412C216.951 53.9156 216.947 53.9913 216.93 54.0642L214.52 64.1462C214.494 64.2724 214.427 64.3853 214.331 64.4665C214.236 64.5476 214.116 64.592 213.993 64.5925Z" fill="#9C7339"/>
<path d="M221.381 64.4169C221.241 64.417 221.106 64.3604 221.004 64.2588C220.903 64.1572 220.842 64.0185 220.836 63.8714L220.422 53.9535C220.415 53.8017 220.467 53.6536 220.565 53.5416C220.662 53.4297 220.799 53.3631 220.943 53.3565C221.088 53.3499 221.229 53.4039 221.335 53.5065C221.442 53.6092 221.506 53.7521 221.512 53.9039L221.93 63.8218C221.935 63.9727 221.883 64.1196 221.786 64.2309C221.689 64.3422 221.554 64.409 221.41 64.4169H221.381Z" fill="#9C7339"/>
<path d="M115.338 74.1633C114.121 74.1832 112.92 73.8787 111.846 73.2782C110.772 72.6778 109.86 71.8011 109.197 70.7301C107.017 67.2093 107.485 61.9871 110.491 56.4102C110.523 56.3404 110.569 56.2784 110.626 56.2279C110.682 56.1775 110.748 56.1396 110.818 56.1166C110.889 56.0936 110.964 56.086 111.037 56.0943C111.111 56.1026 111.182 56.1265 111.247 56.1647C111.312 56.2029 111.368 56.2545 111.413 56.3163C111.458 56.3782 111.49 56.449 111.508 56.5244C111.526 56.5999 111.529 56.6784 111.518 56.7552C111.506 56.8319 111.479 56.9054 111.439 56.9709C108.641 62.1664 108.169 66.9537 110.109 70.1084C110.741 71.1218 111.631 71.9292 112.678 72.4389C113.725 72.9486 114.887 73.1402 116.032 72.9922C119.764 72.6107 123.155 69.3454 125.117 64.2568C125.171 64.1157 125.276 64.0028 125.409 63.9431C125.542 63.8833 125.693 63.8816 125.827 63.9383C125.962 63.9949 126.069 64.1053 126.126 64.2452C126.183 64.385 126.185 64.5429 126.131 64.684C124.012 70.1885 120.28 73.7017 116.138 74.1251C115.869 74.1518 115.603 74.1633 115.338 74.1633Z" fill="#9C7339"/>
<path d="M183.745 244C165.939 244 147.727 240.372 131.68 233.453C129.092 232.335 126.356 231.454 123.711 230.603C117.402 228.57 110.879 226.468 105.905 221.017C100.065 214.616 97.9103 205.717 95.8535 197.111C95.3048 194.822 94.7852 192.667 94.2001 190.55C93.3425 187.456 91.9471 184.447 90.599 181.498C88.6549 177.271 86.6417 172.9 86.1221 168.147C85.21 159.854 91.6092 152.126 98.3536 148.116C103.51 145.065 109.255 143.749 114.811 142.478C120.756 141.12 126.905 139.717 132.21 136.162C140.801 130.405 138.635 122.395 136.338 113.915C135.869 112.172 135.379 110.371 134.994 108.594L129.983 85.6793C129.959 85.5349 129.988 85.3864 130.065 85.2643C130.143 85.1422 130.262 85.0558 130.398 85.023C130.534 84.9903 130.677 85.0135 130.797 85.0881C130.917 85.1627 131.005 85.2828 131.044 85.4237L136.058 108.334C136.44 110.081 136.923 111.87 137.392 113.598C139.692 122.109 142.076 130.909 132.802 137.123C127.33 140.789 121.087 142.211 115.047 143.608C109.571 144.859 103.906 146.152 98.8914 149.123C92.4631 152.938 86.3547 160.258 87.2086 168.025C87.7064 172.602 89.6796 176.867 91.5692 180.994C92.9392 183.966 94.3527 187.04 95.2358 190.226C95.8281 192.362 96.3732 194.632 96.9001 196.825C98.935 205.286 101.039 214.036 106.682 220.22C111.457 225.457 117.558 227.422 124.016 229.504C126.683 230.363 129.445 231.255 132.079 232.392C153.821 241.765 179.581 245.049 202.768 241.402C214.139 239.613 223.965 232.674 233.464 225.965L233.718 225.785C236.927 223.535 240.197 221.166 243.329 218.892C248.995 214.792 254.852 210.554 260.772 206.609L262.509 205.465C271.644 199.362 281.089 193.094 287.31 183.523C294.047 173.167 306.268 141.456 300.392 130.146C298.92 127.316 296.474 125.992 292.921 126.099C288.956 126.209 282.844 125.591 275.115 124.802C262.654 123.531 247.134 121.956 231.73 122.532C231.586 122.537 231.445 122.482 231.339 122.378C231.234 122.274 231.172 122.131 231.167 121.979C231.162 121.827 231.215 121.68 231.314 121.569C231.413 121.458 231.549 121.393 231.694 121.388C247.178 120.808 262.727 122.391 275.22 123.676C282.924 124.439 289.029 125.076 292.902 124.966C296.852 124.851 299.698 126.411 301.362 129.608C307.539 141.491 295.279 173.346 288.233 184.18C281.845 193.922 272.302 200.266 263.09 206.419L261.353 207.563C255.47 211.492 249.62 215.726 243.962 219.819C240.818 222.108 237.566 224.446 234.347 226.72L234.092 226.899C224.492 233.681 214.56 240.693 202.95 242.52C196.592 243.512 190.173 244.007 183.745 244Z" fill="#9C7339"/>
<path d="M232.715 180.468C232.572 180.469 232.434 180.411 232.332 180.306C232.23 180.201 232.172 180.057 232.17 179.907C231.908 165.542 231.443 152.213 230.996 139.328C230.549 126.442 230.08 113.099 229.819 98.7177C229.817 98.5662 229.872 98.42 229.972 98.3108C230.072 98.2015 230.209 98.138 230.353 98.134C230.496 98.133 230.633 98.1914 230.736 98.2965C230.838 98.4015 230.896 98.5447 230.898 98.6948C231.16 113.068 231.625 126.396 232.075 139.286C232.526 152.175 232.987 165.507 233.249 179.888C233.251 180.039 233.196 180.185 233.096 180.294C232.996 180.402 232.859 180.465 232.715 180.468Z" fill="#9C7339"/>
<path d="M156.332 195.231C156.201 195.231 156.074 195.182 155.976 195.092C155.877 195.002 155.812 194.878 155.794 194.742L149.351 148.811C149.33 148.659 149.367 148.505 149.454 148.382C149.541 148.259 149.672 148.177 149.816 148.155C149.961 148.133 150.108 148.171 150.225 148.263C150.342 148.355 150.42 148.491 150.441 148.643L156.873 194.578C156.883 194.653 156.88 194.728 156.862 194.801C156.844 194.874 156.813 194.943 156.77 195.003C156.727 195.063 156.674 195.114 156.612 195.152C156.551 195.191 156.482 195.216 156.412 195.227L156.332 195.231Z" fill="#9C7339"/>
<path d="M206.464 193.354C204.226 193.354 202.467 193.197 201.584 192.804C201.269 192.671 200.985 192.469 200.75 192.211C200.516 191.953 200.337 191.645 200.225 191.309C199.185 188.41 201.907 182.608 204.095 177.958C204.72 176.623 205.258 175.475 205.585 174.635C205.612 174.566 205.652 174.502 205.702 174.449C205.753 174.396 205.813 174.353 205.879 174.324C205.945 174.295 206.016 174.28 206.088 174.28C206.16 174.28 206.231 174.294 206.297 174.323C206.363 174.351 206.424 174.393 206.474 174.446C206.525 174.499 206.566 174.562 206.593 174.632C206.621 174.701 206.635 174.776 206.636 174.851C206.636 174.926 206.622 175.001 206.595 175.07C206.253 175.944 205.705 177.111 205.072 178.461C203.201 182.452 200.374 188.479 201.242 190.916C201.303 191.105 201.403 191.278 201.534 191.423C201.665 191.568 201.825 191.681 202.002 191.755C205.432 193.254 224.168 190.905 233.583 189.467C233.728 189.444 233.875 189.483 233.992 189.575C234.11 189.666 234.187 189.803 234.208 189.955C234.23 190.107 234.193 190.261 234.105 190.384C234.018 190.507 233.888 190.589 233.743 190.611C232.839 190.729 215.585 193.354 206.464 193.354Z" fill="#9C7339"/>
<path d="M285.522 167.079C285.47 167.079 285.419 167.071 285.369 167.056C281.848 165.995 276.648 164.058 272.309 159.499C266.833 153.754 264.151 145.427 264.344 134.746C264.345 134.671 264.361 134.597 264.39 134.528C264.418 134.459 264.46 134.397 264.511 134.345C264.563 134.293 264.624 134.252 264.69 134.225C264.757 134.197 264.828 134.184 264.9 134.186C264.971 134.187 265.042 134.203 265.108 134.234C265.173 134.264 265.233 134.307 265.282 134.361C265.332 134.416 265.371 134.479 265.397 134.549C265.423 134.619 265.436 134.694 265.434 134.769C264.983 159.728 280.555 164.416 285.671 165.957C285.797 165.996 285.905 166.08 285.976 166.196C286.047 166.311 286.076 166.45 286.058 166.586C286.04 166.722 285.976 166.847 285.878 166.937C285.779 167.028 285.653 167.078 285.522 167.079Z" fill="#9C7339"/>
<path d="M249.616 173.133C249.523 173.133 249.431 173.108 249.35 173.061C249.268 173.013 249.2 172.945 249.151 172.862C244.199 164.431 240.167 155.442 237.13 146.064C237.085 145.921 237.095 145.764 237.159 145.629C237.223 145.493 237.335 145.389 237.472 145.34C237.539 145.315 237.611 145.305 237.683 145.31C237.754 145.315 237.824 145.334 237.888 145.368C237.952 145.401 238.01 145.447 238.057 145.504C238.104 145.561 238.14 145.627 238.162 145.698C241.173 154.993 245.17 163.902 250.077 172.259C250.116 172.323 250.141 172.394 250.153 172.468C250.165 172.543 250.163 172.619 250.146 172.692C250.13 172.765 250.1 172.835 250.059 172.896C250.017 172.957 249.964 173.009 249.903 173.049C249.816 173.104 249.717 173.133 249.616 173.133Z" fill="#9C7339"/>
<path d="M122.519 186.991C122.411 186.987 122.307 186.95 122.22 186.885C122.132 186.819 122.065 186.728 122.027 186.623C121.988 186.518 121.979 186.403 122.002 186.293C122.025 186.183 122.078 186.082 122.155 186.003C132.007 176.051 137.359 160.976 136.087 146.682C136.081 146.607 136.089 146.532 136.11 146.46C136.131 146.388 136.166 146.322 136.212 146.264C136.258 146.206 136.314 146.158 136.377 146.124C136.441 146.089 136.51 146.067 136.582 146.061C136.653 146.053 136.725 146.061 136.793 146.083C136.861 146.105 136.925 146.141 136.98 146.189C137.035 146.236 137.081 146.295 137.114 146.362C137.147 146.428 137.168 146.501 137.174 146.576C138.468 161.216 132.995 176.642 122.897 186.831C122.795 186.934 122.66 186.991 122.519 186.991Z" fill="#9C7339"/>
<path d="M146.193 205.686C146.148 205.692 146.103 205.692 146.059 205.686C137.566 203.398 124.081 200.163 108.056 197.626C107.984 197.615 107.916 197.589 107.854 197.55C107.792 197.511 107.738 197.459 107.694 197.398C107.651 197.337 107.62 197.267 107.603 197.194C107.585 197.12 107.582 197.043 107.593 196.968C107.603 196.893 107.628 196.821 107.665 196.756C107.703 196.691 107.752 196.634 107.81 196.589C107.868 196.543 107.934 196.511 108.005 196.492C108.075 196.474 108.148 196.47 108.219 196.482C124.288 199.026 137.814 202.28 146.328 204.565C146.399 204.574 146.468 204.598 146.531 204.635C146.594 204.673 146.649 204.723 146.693 204.782C146.738 204.842 146.77 204.91 146.79 204.983C146.809 205.056 146.814 205.132 146.805 205.208C146.797 205.283 146.774 205.355 146.738 205.421C146.703 205.487 146.655 205.545 146.598 205.592C146.541 205.638 146.476 205.672 146.407 205.693C146.337 205.713 146.265 205.718 146.193 205.709V205.686Z" fill="#9C7339"/>
<path d="M101.54 175.582C101.396 175.582 101.257 175.521 101.155 175.414C101.053 175.307 100.995 175.161 100.995 175.01C100.995 174.858 101.053 174.712 101.155 174.605C101.257 174.498 101.396 174.437 101.54 174.437C106.037 174.251 110.428 172.951 114.355 170.642C118.281 168.334 121.632 165.083 124.132 161.155C124.211 161.028 124.335 160.94 124.476 160.909C124.617 160.879 124.764 160.908 124.884 160.991C125.005 161.074 125.089 161.204 125.118 161.352C125.148 161.5 125.12 161.654 125.041 161.781C122.445 165.862 118.965 169.241 114.886 171.639C110.807 174.037 106.245 175.387 101.573 175.578L101.54 175.582Z" fill="#9C7339"/>
<path d="M193.531 208.818C193.387 208.83 193.243 208.781 193.133 208.683C193.023 208.584 192.954 208.443 192.943 208.292C192.931 208.14 192.977 207.989 193.071 207.874C193.165 207.758 193.299 207.686 193.444 207.674C202.372 206.148 211.49 204.885 220.305 203.642C225.291 202.944 230.444 202.219 235.506 201.46L251.099 199.121C251.242 199.101 251.388 199.14 251.503 199.232C251.619 199.323 251.696 199.459 251.716 199.61C251.727 199.684 251.723 199.759 251.705 199.832C251.687 199.905 251.656 199.973 251.613 200.033C251.57 200.093 251.517 200.143 251.455 200.181C251.394 200.219 251.326 200.244 251.255 200.254L235.655 202.589C230.589 203.352 225.433 204.073 220.447 204.775C211.639 206.014 202.525 207.296 193.615 208.799L193.531 208.818Z" fill="#9C7339"/>
<path d="M175.896 225.099H175.802C175.659 225.072 175.533 224.987 175.45 224.863C175.367 224.738 175.334 224.585 175.358 224.435C176.194 219.537 178.516 215.085 181.576 212.53C181.631 212.478 181.696 212.438 181.766 212.414C181.836 212.389 181.911 212.38 181.985 212.386C182.058 212.393 182.13 212.415 182.196 212.451C182.261 212.488 182.319 212.538 182.365 212.599C182.411 212.66 182.445 212.73 182.465 212.805C182.484 212.88 182.489 212.958 182.479 213.035C182.469 213.112 182.444 213.187 182.405 213.253C182.367 213.32 182.316 213.377 182.255 213.422C179.399 215.814 177.223 220.002 176.441 224.633C176.417 224.766 176.349 224.885 176.249 224.97C176.149 225.055 176.025 225.1 175.896 225.099Z" fill="#9C7339"/>
<path d="M171.39 224.481C171.262 224.48 171.138 224.433 171.04 224.346C170.942 224.26 170.875 224.14 170.852 224.008C170.126 219.724 167.618 213.96 162.771 210.657C162.708 210.617 162.654 210.564 162.611 210.502C162.568 210.44 162.538 210.369 162.522 210.294C162.506 210.219 162.504 210.142 162.517 210.066C162.53 209.991 162.557 209.919 162.597 209.854C162.637 209.79 162.689 209.735 162.75 209.692C162.81 209.649 162.879 209.62 162.95 209.605C163.022 209.591 163.096 209.592 163.168 209.608C163.239 209.624 163.307 209.655 163.367 209.699C169.831 214.124 171.554 221.624 171.928 223.813C171.941 223.887 171.939 223.963 171.924 224.037C171.908 224.11 171.879 224.18 171.838 224.242C171.796 224.303 171.744 224.356 171.683 224.396C171.623 224.437 171.555 224.464 171.485 224.477C171.453 224.482 171.422 224.483 171.39 224.481Z" fill="#9C7339"/>
<path d="M175.129 200.499C174.991 200.499 174.853 200.499 174.715 200.479C168.77 200.029 163.508 178.294 158.726 154.872C158.41 153.346 158.13 151.973 157.887 150.821C157.856 150.673 157.882 150.518 157.959 150.39C158.037 150.262 158.16 150.171 158.301 150.138C158.442 150.105 158.59 150.133 158.712 150.214C158.834 150.296 158.92 150.425 158.952 150.573C159.195 151.718 159.475 153.095 159.791 154.632C161.299 161.998 163.581 173.129 166.281 182.501C170.224 196.184 173.094 199.209 174.81 199.339C179.864 199.72 185.559 191.294 191.275 174.956C191.294 174.88 191.329 174.809 191.376 174.748C191.423 174.687 191.482 174.637 191.548 174.6C191.614 174.564 191.687 174.542 191.762 174.537C191.837 174.531 191.912 174.542 191.982 174.568C192.053 174.595 192.118 174.636 192.172 174.69C192.227 174.743 192.271 174.808 192.301 174.88C192.33 174.953 192.346 175.03 192.345 175.109C192.345 175.188 192.329 175.265 192.299 175.337C186.445 192.042 180.675 200.499 175.129 200.499Z" fill="#9C7339"/>
<path d="M198.481 152.965C198.434 152.964 198.388 152.957 198.342 152.946C198.202 152.906 198.083 152.81 198.01 152.679C197.937 152.547 197.917 152.391 197.954 152.244C202.536 134.17 205.476 117.253 206.489 110.108C206.511 109.956 206.588 109.819 206.706 109.728C206.823 109.636 206.97 109.597 207.115 109.62C207.259 109.642 207.389 109.724 207.477 109.847C207.564 109.97 207.601 110.124 207.58 110.276C206.562 117.447 203.611 134.418 199.018 152.541C198.987 152.665 198.917 152.774 198.82 152.851C198.722 152.928 198.602 152.968 198.481 152.965Z" fill="#9C7339"/>
<path d="M131.378 94.9832C126.676 94.9832 122.759 93.4573 119.717 90.4057C115.88 86.5605 113.678 80.4038 113.678 73.5185C113.678 73.3667 113.735 73.2212 113.837 73.1139C113.939 73.0066 114.078 72.9463 114.223 72.9463C114.367 72.9463 114.506 73.0066 114.608 73.1139C114.71 73.2212 114.768 73.3667 114.768 73.5185C114.768 80.0948 116.846 85.9464 120.469 89.5779C123.518 92.6296 127.541 94.06 132.421 93.8235C132.492 93.82 132.564 93.8313 132.631 93.8569C132.699 93.8824 132.761 93.9216 132.814 93.9722C132.867 94.0229 132.91 94.084 132.94 94.1521C132.971 94.2202 132.988 94.2939 132.991 94.369C132.995 94.4441 132.984 94.5192 132.96 94.59C132.935 94.6608 132.898 94.7258 132.85 94.7814C132.801 94.837 132.743 94.8821 132.678 94.9141C132.614 94.9461 132.543 94.9644 132.472 94.9679C132.101 94.9832 131.738 94.9832 131.378 94.9832Z" fill="#9C7339"/>
<path d="M126.865 89.0934C126.751 89.0945 126.639 89.0578 126.546 88.9886C126.454 88.9193 126.384 88.8211 126.347 88.7078C126.311 88.5945 126.309 88.472 126.342 88.3577C126.376 88.2434 126.443 88.1431 126.534 88.0711C133.438 82.4827 136.491 74.6781 135.837 64.2071C135.832 64.1319 135.841 64.0565 135.864 63.9852C135.887 63.9139 135.923 63.848 135.971 63.7913C136.018 63.7346 136.075 63.6883 136.14 63.6549C136.204 63.6215 136.274 63.6017 136.345 63.5967C136.417 63.5917 136.489 63.6016 136.557 63.6257C136.625 63.6498 136.688 63.6878 136.742 63.7373C136.795 63.7869 136.84 63.8472 136.871 63.9147C136.903 63.9822 136.922 64.0556 136.927 64.1308C137.595 74.8612 134.325 83.2037 127.199 88.9752C127.104 89.0532 126.986 89.0949 126.865 89.0934Z" fill="#9C7339"/>
<path d="M87.681 27.5107H17.4752C15.7733 27.5107 14.3937 28.959 14.3937 30.7455V30.7608C14.3937 32.5473 15.7733 33.9955 17.4752 33.9955H87.681C89.3829 33.9955 90.7625 32.5473 90.7625 30.7608V30.7455C90.7625 28.959 89.3829 27.5107 87.681 27.5107Z" fill="#181818"/>
<path d="M87.6846 34.5679H17.4752C16.5114 34.5679 15.5871 34.166 14.9056 33.4506C14.2242 32.7353 13.8413 31.765 13.8413 30.7533C13.8413 29.7416 14.2242 28.7714 14.9056 28.056C15.5871 27.3406 16.5114 26.9387 17.4752 26.9387H87.6846C88.6484 26.9387 89.5727 27.3406 90.2542 28.056C90.9356 28.7714 91.3185 29.7416 91.3185 30.7533C91.3185 31.765 90.9356 32.7353 90.2542 33.4506C89.5727 34.166 88.6484 34.5679 87.6846 34.5679ZM17.4752 28.0831C16.8005 28.0831 16.1535 28.3644 15.6765 28.8652C15.1995 29.3659 14.9315 30.0451 14.9315 30.7533C14.9315 31.4615 15.1995 32.1407 15.6765 32.6414C16.1535 33.1422 16.8005 33.4235 17.4752 33.4235H87.6846C88.3593 33.4235 89.0063 33.1422 89.4833 32.6414C89.9603 32.1407 90.2283 31.4615 90.2283 30.7533C90.2283 30.0451 89.9603 29.3659 89.4833 28.8652C89.0063 28.3644 88.3593 28.0831 87.6846 28.0831H17.4752Z" fill="#9C7339"/>
<path d="M87.5429 33.9956H17.6169V61.4187H87.5429V33.9956Z" fill="#181818"/>
<path d="M87.5429 61.9946H17.6168L17.079 61.4148V33.9955L17.6241 33.4233H87.5429L88.088 33.9955V61.4148L87.5429 61.9946ZM18.1692 60.8502H86.9978V34.5677H18.1692V60.8502Z" fill="#9C7339"/>
<path d="M35.9315 216.794C44.6309 211.942 47.3962 200.735 51.9676 191.675C59.5333 176.673 73.1638 166.465 87.3722 157.63V61.2317H17.7841V219.987C24.0524 219.518 30.4734 219.838 35.9315 216.794Z" fill="#181818"/>
<mask id="mask0_32_333" style="mask-type:luminance" maskUnits="userSpaceOnUse" x="17" y="61" width="71" height="159">
<path d="M35.9315 216.794C44.6309 211.942 47.3962 200.735 51.9676 191.675C59.5333 176.673 73.1638 166.465 87.3722 157.63V61.2317H17.7841V219.987C24.0524 219.518 30.4734 219.838 35.9315 216.794Z" fill="white"/>
</mask>
<g mask="url(#mask0_32_333)">
<path d="M23.62 228.925H23.5364C22.7139 228.93 21.8984 228.766 21.1365 228.44C20.3746 228.115 19.6813 227.635 19.0961 227.028C18.511 226.421 18.0455 225.699 17.7262 224.903C17.4069 224.108 17.2401 223.254 17.2354 222.39V71.0771C17.243 69.3349 17.909 67.6672 19.0869 66.4399C20.2649 65.2126 21.8586 64.5262 23.5183 64.5313H23.62C25.2796 64.5262 26.8734 65.2126 28.0513 66.4399C29.2293 67.6672 29.8952 69.3349 29.9029 71.0771V222.39C29.8933 224.131 29.2264 225.796 28.0486 227.021C26.8707 228.246 25.2781 228.931 23.62 228.925ZM23.5364 65.6604C22.1659 65.6553 20.8495 66.2212 19.876 67.2338C18.9024 68.2465 18.3514 69.6232 18.3437 71.0618V222.39C18.3523 223.828 18.9038 225.204 19.8772 226.216C20.8506 227.228 22.1666 227.793 23.5364 227.788H23.62C24.9868 227.788 26.298 227.22 27.2675 226.209C28.237 225.198 28.786 223.825 28.7946 222.39V71.0771C28.7869 69.6418 28.2384 68.2679 27.2688 67.2558C26.2992 66.2437 24.9874 65.6756 23.62 65.6757L23.5364 65.6604Z" fill="#9C7339"/>
<path d="M35.4337 228.925H35.3464C33.6899 228.928 32.0997 228.242 30.9236 227.017C29.7476 225.793 29.0814 224.129 29.0708 222.39V71.0771C29.0795 69.3352 29.7457 67.6681 30.9234 66.441C32.1012 65.214 33.6944 64.5272 35.3537 64.5313H35.4409C37.0999 64.5272 38.6927 65.2141 39.8699 66.4412C41.0471 67.6684 41.7125 69.3356 41.7202 71.0771V222.39C41.7106 224.131 41.0432 225.797 39.8646 227.023C38.6859 228.248 37.0923 228.932 35.4337 228.925ZM35.3464 65.6604C33.9747 65.6573 32.6579 66.2262 31.6855 67.2419C30.7132 68.2577 30.1648 69.6371 30.161 71.0771V222.39C30.1696 223.828 30.7211 225.204 31.6945 226.216C32.6679 227.228 33.9838 227.793 35.3537 227.788H35.4409C36.8092 227.791 38.1229 227.225 39.0941 226.213C40.0654 225.201 40.6151 223.827 40.6228 222.39V71.0771C40.6161 69.6388 40.0658 68.2621 39.0929 67.2493C38.1199 66.2366 36.8038 65.6706 35.4337 65.6756L35.3464 65.6604Z" fill="#9C7339"/>
<path d="M46.9929 228.925H46.9057C45.2479 228.93 43.6558 228.245 42.4782 227.02C41.3005 225.795 40.6333 224.13 40.6227 222.39V71.0771C40.6314 69.3352 41.2976 67.6681 42.4754 66.441C43.6531 65.214 45.2463 64.5272 46.9057 64.5313H46.9929C48.6522 64.5272 50.2454 65.214 51.4231 66.441C52.6009 67.6681 53.2671 69.3352 53.2758 71.0771V222.39C53.2652 224.13 52.598 225.795 51.4204 227.02C50.2427 228.245 48.6506 228.93 46.9929 228.925ZM46.9057 65.6604C45.5351 65.6553 44.2187 66.2212 43.2452 67.2338C42.2717 68.2465 41.7206 69.6232 41.7129 71.0618V222.39C41.7215 223.828 42.273 225.204 43.2464 226.216C44.2199 227.228 45.5358 227.793 46.9057 227.788H46.9929C48.3628 227.793 49.6787 227.228 50.6521 226.216C51.6255 225.204 52.177 223.828 52.1856 222.39V71.0771C52.1779 69.6384 51.6269 68.2617 50.6534 67.2491C49.6798 66.2364 48.3634 65.6706 46.9929 65.6756L46.9057 65.6604Z" fill="#9C7339"/>
<path d="M58.5522 228.925H58.4649C56.8075 228.93 55.2158 228.245 54.0387 227.02C52.8617 225.795 52.1953 224.13 52.1857 222.39V71.0771C52.1934 69.3356 52.8588 67.6684 54.036 66.4412C55.2131 65.2141 56.8059 64.5272 58.4649 64.5313H58.5522C60.2115 64.5272 61.8047 65.214 62.9824 66.441C64.1602 67.6681 64.8264 69.3352 64.8351 71.0771V222.39C64.8245 224.13 64.1573 225.795 62.9797 227.02C61.802 228.245 60.2099 228.93 58.5522 228.925ZM58.4649 65.6604C57.0951 65.6563 55.7795 66.2226 54.8068 67.2352C53.8341 68.2477 53.2835 69.6238 53.2758 71.0618V222.39C53.2845 223.828 53.8355 225.203 54.8081 226.214C55.7807 227.226 57.0957 227.792 58.4649 227.788H58.5522C59.922 227.793 61.238 227.228 62.2114 226.216C63.1848 225.204 63.7363 223.828 63.7449 222.39V71.0771C63.7372 69.6384 63.1862 68.2617 62.2126 67.2491C61.2391 66.2364 59.9227 65.6706 58.5522 65.6756L58.4649 65.6604Z" fill="#9C7339"/>
<path d="M70.1114 228.925H70.0279C68.3698 228.931 66.7772 228.246 65.5993 227.021C64.4214 225.796 63.7545 224.131 63.7449 222.39V71.0771C63.7526 69.3349 64.4186 67.6672 65.5965 66.4399C66.7745 65.2126 68.3682 64.5262 70.0279 64.5313H70.1114C71.7711 64.5262 73.3648 65.2126 74.5428 66.4399C75.7207 67.6672 76.3866 69.3349 76.3943 71.0771V222.39C76.3847 224.131 75.7178 225.796 74.54 227.021C73.3621 228.246 71.7695 228.931 70.1114 228.925ZM70.0279 65.6604C68.6573 65.6553 67.3409 66.2212 66.3674 67.2338C65.3938 68.2465 64.8428 69.6232 64.8351 71.0618V222.39C64.8437 223.828 65.3952 225.204 66.3686 226.216C67.3421 227.228 68.658 227.793 70.0279 227.788H70.1114C71.4813 227.793 72.7972 227.228 73.7706 226.216C74.7441 225.204 75.2955 223.828 75.3042 222.39V71.0771C75.2965 69.6384 74.7454 68.2617 73.7719 67.2491C72.7984 66.2364 71.4819 65.6706 70.1114 65.6757L70.0279 65.6604Z" fill="#9C7339"/>
<path d="M81.6743 228.925H81.5871C79.929 228.931 78.3364 228.246 77.1585 227.021C75.9807 225.796 75.3138 224.131 75.3042 222.39V71.0771C75.3119 69.3349 75.9778 67.6672 77.1558 66.4399C78.3337 65.2126 79.9275 64.5262 81.5871 64.5313H81.6743C83.3308 64.5313 84.9199 65.2199 86.0939 66.4466C87.2679 67.6734 87.9314 69.3382 87.939 71.0771V222.39C87.9294 224.127 87.2651 225.79 86.0911 227.014C84.9172 228.239 83.3292 228.926 81.6743 228.925ZM81.5871 65.6604C80.2166 65.6553 78.9001 66.2212 77.9266 67.2338C76.9531 68.2465 76.402 69.6232 76.3943 71.0618V222.39C76.403 223.828 76.9545 225.204 77.9279 226.216C78.9013 227.228 80.2172 227.793 81.5871 227.788H81.6743C83.041 227.788 84.3523 227.22 85.3218 226.209C86.2913 225.198 86.8403 223.825 86.8489 222.39V71.0771C86.8412 69.6391 86.2906 68.263 85.3179 67.2504C84.3452 66.2379 83.0296 65.6716 81.6598 65.6757L81.5871 65.6604Z" fill="#9C7339"/>
</g>
<path d="M17.824 220.559L17.239 219.987V61.2319L17.784 60.6597H87.3721L87.9172 61.2319V157.63L87.6483 158.122C74.5665 166.251 60.1764 176.623 52.4473 191.942C51.3571 194.094 50.3578 196.421 49.3876 198.668C46.2298 205.969 42.9702 213.514 36.1858 217.298C31.6544 219.827 26.4362 220.09 21.3852 220.35C20.2151 220.407 19.005 220.483 17.824 220.559ZM18.3291 61.7964V219.373C19.3357 219.308 20.3495 219.255 21.3343 219.205C26.4871 218.957 31.3601 218.694 35.6771 216.287C42.1308 212.686 45.314 205.32 48.3955 198.195C49.373 195.933 50.3832 193.59 51.4843 191.405C59.2861 175.94 73.698 165.488 86.827 157.306V61.7964H18.3291Z" fill="#9C7339"/>
<path d="M58.116 61.9947H47.0437L46.604 61.7658C42.6068 56.1775 51.6914 35.2926 52.0839 34.4038H53.0723C53.4611 35.2926 62.5203 56.1775 58.5521 61.7658L58.116 61.9947ZM47.3308 60.8503H57.8253C60.2963 56.6085 55.2816 42.5174 52.5781 36.0555C49.8709 42.5174 44.8598 56.6085 47.3308 60.8503Z" fill="#9C7339"/>
<path d="M48.6935 61.9947H37.6248L37.1888 61.7658C33.1915 56.1775 42.2761 35.2926 42.665 34.4038H43.657C44.0458 35.2926 53.105 56.1775 49.1332 61.7658L48.6935 61.9947ZM37.9083 60.8503H48.4064C50.8738 56.6085 45.8627 42.5174 43.1555 36.0555C40.452 42.5174 35.4445 56.6085 37.9119 60.8503H37.9083Z" fill="#9C7339"/>
<path d="M39.2782 61.9947H28.2059L27.7698 61.7658C23.7726 56.1775 32.8572 35.2926 33.246 34.4038H34.2381C34.6269 35.2926 43.6861 56.1775 39.7143 61.7658L39.2782 61.9947ZM28.493 60.8503H38.9911C41.4621 56.6085 36.4474 42.5136 33.7439 36.0555C31.033 42.5174 26.0256 56.6085 28.493 60.8503Z" fill="#9C7339"/>
<path d="M29.8629 61.9947H18.787L18.3509 61.7658C14.3537 56.1775 23.4383 35.2926 23.8307 34.4038H24.8192C25.208 35.2926 34.2671 56.1775 30.299 61.7658L29.8629 61.9947ZM19.0777 60.8503H29.5722C32.0432 56.6085 27.0285 42.5174 24.325 36.0555C21.6141 42.5174 16.6067 56.6085 19.0777 60.8503Z" fill="#9C7339"/>
<path d="M67.535 61.9947H56.459L56.023 61.7658C52.0257 56.1775 61.1104 35.2926 61.5028 34.4038H62.5021C62.8909 35.2926 71.9501 56.1775 67.9819 61.7658L67.535 61.9947ZM56.7497 60.8503H67.2443C69.7153 56.6085 64.7006 42.5174 61.997 36.0555C59.2862 42.5174 54.2787 56.6085 56.7497 60.8503Z" fill="#9C7339"/>
<path d="M76.9503 61.9947H65.8779L65.4419 61.7658C61.4446 56.1775 70.5293 35.2926 70.9181 34.4038H71.9101C72.2989 35.2926 81.3581 56.1775 77.39 61.7658L76.9503 61.9947ZM66.1686 60.8503H76.6741C79.1451 56.6085 74.1304 42.5174 71.4268 36.0555C68.7051 42.5174 63.6976 56.6085 66.1686 60.8503Z" fill="#9C7339"/>
<path d="M86.3692 61.9947H75.2969L74.8608 61.7658C70.8636 56.1775 79.9482 35.2926 80.337 34.4038H81.3291C81.7179 35.2926 90.7771 56.1775 86.8053 61.7658L86.3692 61.9947ZM75.584 60.8503H86.0821C88.5495 56.6085 83.5384 42.5174 80.8349 36.0555C78.1276 42.5174 73.1166 56.6085 75.584 60.8503Z" fill="#9C7339"/>
<path d="M98.8551 6.82056H6.78802L17.8603 27.7474H87.7828L98.8551 6.82056Z" fill="#181818"/>
<mask id="mask1_32_333" style="mask-type:luminance" maskUnits="userSpaceOnUse" x="6" y="6" width="93" height="22">
<path d="M98.6116 6.82056H6.54456L17.6169 27.7474H87.5429L98.6116 6.82056Z" fill="white"/>
</mask>
<g mask="url(#mask1_32_333)">
<path d="M7.1005 24.1656C10.721 24.1656 13.656 21.0847 13.656 17.2841C13.656 13.4835 10.721 10.4026 7.1005 10.4026C3.48002 10.4026 0.545044 13.4835 0.545044 17.2841C0.545044 21.0847 3.48002 24.1656 7.1005 24.1656Z" fill="#181818"/>
<path d="M7.1005 24.7377C5.696 24.7385 4.32283 24.302 3.15467 23.4834C1.98652 22.6648 1.07586 21.501 0.53788 20.1391C-9.92692e-05 18.7772 -0.141232 17.2783 0.132333 15.8322C0.405898 14.3861 1.08187 13.0576 2.07475 12.0148C3.06764 10.972 4.33282 10.2617 5.71029 9.97383C7.08776 9.68591 8.51562 9.8333 9.81329 10.3973C11.1109 10.9614 12.2201 11.9167 13.0005 13.1426C13.7809 14.3684 14.1974 15.8097 14.1974 17.284C14.1955 19.2596 13.4473 21.1537 12.1169 22.551C10.7865 23.9483 8.98246 24.7347 7.1005 24.7377ZM7.1005 10.9785C5.91146 10.9778 4.74891 11.3473 3.75995 12.0402C2.77099 12.7332 2.00006 13.7186 1.5447 14.8716C1.08934 16.0246 0.97001 17.2935 1.20181 18.5178C1.4336 19.742 2.00611 20.8666 2.84689 21.7492C3.68768 22.6318 4.75896 23.2328 5.9252 23.4761C7.09143 23.7194 8.30022 23.5942 9.39862 23.1162C10.497 22.6382 11.4357 21.8289 12.0958 20.7907C12.756 19.7526 13.108 18.5322 13.1072 17.284C13.1053 15.6123 12.4719 14.0097 11.3458 12.8276C10.2197 11.6455 8.693 10.9805 7.1005 10.9785Z" fill="#9C7339"/>
<path d="M20.0443 24.1656C23.6648 24.1656 26.5997 21.0847 26.5997 17.2841C26.5997 13.4835 23.6648 10.4026 20.0443 10.4026C16.4238 10.4026 13.4888 13.4835 13.4888 17.2841C13.4888 21.0847 16.4238 24.1656 20.0443 24.1656Z" fill="#181818"/>
<path d="M20.0442 24.7377C18.6397 24.7385 17.2666 24.302 16.0984 23.4834C14.9302 22.6648 14.0196 21.501 13.4816 20.1391C12.9436 18.7772 12.8025 17.2783 13.0761 15.8322C13.3496 14.3861 14.0256 13.0576 15.0185 12.0148C16.0114 10.972 17.2765 10.2617 18.654 9.97383C20.0315 9.68591 21.4593 9.8333 22.757 10.3973C24.0547 10.9614 25.1638 11.9167 25.9442 13.1426C26.7246 14.3684 27.1411 15.8097 27.1411 17.284C27.1392 19.2596 26.391 21.1537 25.0606 22.551C23.7302 23.9483 21.9262 24.7347 20.0442 24.7377ZM20.0442 10.9785C18.8552 10.9778 17.6926 11.3473 16.7037 12.0402C15.7147 12.7332 14.9438 13.7186 14.4884 14.8716C14.0331 16.0246 13.9137 17.2935 14.1455 18.5178C14.3773 19.742 14.9498 20.8666 15.7906 21.7492C16.6314 22.6318 17.7027 23.2328 18.8689 23.4761C20.0352 23.7194 21.2439 23.5942 22.3423 23.1162C23.4407 22.6382 24.3794 21.8289 25.0396 20.7907C25.6997 19.7526 26.0517 18.5322 26.051 17.284C26.049 15.6123 25.4156 14.0097 24.2895 12.8276C23.1634 11.6455 21.6367 10.9805 20.0442 10.9785Z" fill="#9C7339"/>
<path d="M32.9843 24.1656C36.6048 24.1656 39.5398 21.0847 39.5398 17.2841C39.5398 13.4835 36.6048 10.4026 32.9843 10.4026C29.3639 10.4026 26.4289 13.4835 26.4289 17.2841C26.4289 21.0847 29.3639 24.1656 32.9843 24.1656Z" fill="#181818"/>
<path d="M32.9844 24.7377C31.58 24.7377 30.2072 24.3006 29.0395 23.4816C27.8719 22.6625 26.9618 21.4984 26.4243 20.1364C25.8869 18.7744 25.7463 17.2758 26.0203 15.8299C26.2943 14.384 26.9705 13.0559 27.9636 12.0135C28.9566 10.971 30.2218 10.2611 31.5991 9.97355C32.9765 9.68594 34.4042 9.83355 35.7016 10.3977C36.9991 10.9619 38.108 11.9172 38.8883 13.143C39.6685 14.3687 40.0849 15.8098 40.0849 17.284C40.083 19.2603 39.3343 21.155 38.0031 22.5524C36.6719 23.9498 34.867 24.7357 32.9844 24.7377ZM32.9844 10.9785C31.7955 10.9785 30.6333 11.3486 29.6448 12.0421C28.6563 12.7355 27.886 13.7211 27.4312 14.8742C26.9764 16.0273 26.8576 17.2961 27.0898 18.5201C27.322 19.7441 27.8948 20.8683 28.7357 21.7506C29.5766 22.6328 30.6479 23.2334 31.814 23.4764C32.9802 23.7194 34.1888 23.5939 35.287 23.1158C36.3852 22.6377 37.3236 21.8284 37.9836 20.7903C38.6436 19.7523 38.9955 18.5321 38.9948 17.284C38.9928 15.6117 38.3589 14.0084 37.232 12.8262C36.1052 11.6441 34.5775 10.9795 32.9844 10.9785Z" fill="#9C7339"/>
<path d="M45.9281 24.1656C49.5486 24.1656 52.4836 21.0847 52.4836 17.2841C52.4836 13.4835 49.5486 10.4026 45.9281 10.4026C42.3077 10.4026 39.3727 13.4835 39.3727 17.2841C39.3727 21.0847 42.3077 24.1656 45.9281 24.1656Z" fill="#181818"/>
<path d="M45.9281 24.7377C44.5238 24.7377 43.1509 24.3006 41.9833 23.4816C40.8156 22.6625 39.9055 21.4984 39.3681 20.1364C38.8307 18.7744 38.69 17.2758 38.964 15.8299C39.238 14.384 39.9142 13.0559 40.9073 12.0135C41.9003 10.971 43.1655 10.2611 44.5429 9.97355C45.9202 9.68594 47.3479 9.83355 48.6454 10.3977C49.9428 10.9619 51.0518 11.9172 51.832 13.143C52.6122 14.3687 53.0286 15.8098 53.0286 17.284C53.0267 19.2603 52.278 21.155 50.9468 22.5524C49.6156 23.9498 47.8107 24.7357 45.9281 24.7377ZM45.9281 10.9785C44.7392 10.9785 43.577 11.3486 42.5885 12.0421C41.6001 12.7355 40.8297 13.7211 40.3749 14.8742C39.9201 16.0273 39.8013 17.2961 40.0335 18.5201C40.2657 19.7441 40.8385 20.8683 41.6794 21.7506C42.5203 22.6328 43.5916 23.2334 44.7578 23.4764C45.9239 23.7194 47.1325 23.5939 48.2307 23.1158C49.3289 22.6377 50.2673 21.8284 50.9273 20.7903C51.5873 19.7523 51.9392 18.5321 51.9385 17.284C51.9366 15.6117 51.3026 14.0084 50.1757 12.8262C49.0489 11.6441 47.5212 10.9795 45.9281 10.9785Z" fill="#9C7339"/>
<path d="M58.8719 24.1656C62.4923 24.1656 65.4273 21.0847 65.4273 17.2841C65.4273 13.4835 62.4923 10.4026 58.8719 10.4026C55.2514 10.4026 52.3164 13.4835 52.3164 17.2841C52.3164 21.0847 55.2514 24.1656 58.8719 24.1656Z" fill="#181818"/>
<path d="M58.8682 24.7377C57.4639 24.7377 56.0911 24.3006 54.9234 23.4816C53.7557 22.6625 52.8456 21.4984 52.3082 20.1364C51.7708 18.7744 51.6302 17.2758 51.9041 15.8299C52.1781 14.384 52.8544 13.0559 53.8474 12.0135C54.8404 10.971 56.1056 10.2611 57.483 9.97355C58.8604 9.68594 60.288 9.83355 61.5855 10.3977C62.8829 10.9619 63.9919 11.9172 64.7721 13.143C65.5523 14.3687 65.9688 15.8098 65.9688 17.284C65.9668 19.2603 65.2181 21.155 63.8869 22.5524C62.5558 23.9498 60.7508 24.7357 58.8682 24.7377ZM58.8682 10.9785C57.6793 10.9785 56.5172 11.3486 55.5287 12.0421C54.5402 12.7355 53.7698 13.7211 53.315 14.8742C52.8602 16.0273 52.7414 17.2961 52.9736 18.5201C53.2058 19.7441 53.7786 20.8683 54.6195 21.7506C55.4605 22.6328 56.5318 23.2334 57.6979 23.4764C58.864 23.7194 60.0726 23.5939 61.1708 23.1158C62.269 22.6377 63.2075 21.8284 63.8674 20.7903C64.5274 19.7523 64.8793 18.5321 64.8786 17.284C64.8767 15.6117 64.2427 14.0084 63.1159 12.8262C61.989 11.6441 60.4614 10.9795 58.8682 10.9785Z" fill="#9C7339"/>
<path d="M71.8156 24.1656C75.4361 24.1656 78.371 21.0847 78.371 17.2841C78.371 13.4835 75.4361 10.4026 71.8156 10.4026C68.1951 10.4026 65.2601 13.4835 65.2601 17.2841C65.2601 21.0847 68.1951 24.1656 71.8156 24.1656Z" fill="#181818"/>
<path d="M71.8156 24.7377C70.4113 24.7377 69.0385 24.3006 67.8708 23.4816C66.7031 22.6625 65.793 21.4984 65.2556 20.1364C64.7182 18.7744 64.5776 17.2758 64.8515 15.8299C65.1255 14.384 65.8018 13.0559 66.7948 12.0135C67.7878 10.971 69.053 10.2611 70.4304 9.97355C71.8077 9.68594 73.2354 9.83355 74.5329 10.3977C75.8303 10.9619 76.9393 11.9172 77.7195 13.143C78.4997 14.3687 78.9162 15.8098 78.9162 17.284C78.9142 19.2603 78.1655 21.155 76.8343 22.5524C75.5031 23.9498 73.6982 24.7357 71.8156 24.7377ZM71.8156 10.9785C70.6267 10.9785 69.4645 11.3486 68.4761 12.0421C67.4876 12.7355 66.7172 13.7211 66.2624 14.8742C65.8076 16.0273 65.6888 17.2961 65.921 18.5201C66.1532 19.7441 66.726 20.8683 67.5669 21.7506C68.4079 22.6328 69.4791 23.2334 70.6453 23.4764C71.8114 23.7194 73.02 23.5939 74.1182 23.1158C75.2164 22.6377 76.1548 21.8284 76.8148 20.7903C77.4748 19.7523 77.8267 18.5321 77.826 17.284C77.8241 15.6117 77.1901 14.0084 76.0633 12.8262C74.9364 11.6441 73.4087 10.9795 71.8156 10.9785Z" fill="#9C7339"/>
<path d="M84.7594 24.1656C88.3798 24.1656 91.3148 21.0847 91.3148 17.2841C91.3148 13.4835 88.3798 10.4026 84.7594 10.4026C81.1389 10.4026 78.2039 13.4835 78.2039 17.2841C78.2039 21.0847 81.1389 24.1656 84.7594 24.1656Z" fill="#181818"/>
<path d="M84.7594 24.7377C83.355 24.7377 81.9822 24.3006 80.8145 23.4816C79.6469 22.6625 78.7368 21.4984 78.1993 20.1364C77.6619 18.7744 77.5213 17.2758 77.7953 15.8299C78.0693 14.384 78.7455 13.0559 79.7385 12.0135C80.7316 10.971 81.9968 10.2611 83.3741 9.97355C84.7515 9.68594 86.1792 9.83355 87.4766 10.3977C88.7741 10.9619 89.883 11.9172 90.6633 13.143C91.4435 14.3687 91.8599 15.8098 91.8599 17.284C91.858 19.2603 91.1093 21.155 89.7781 22.5524C88.4469 23.9498 86.642 24.7357 84.7594 24.7377ZM84.7594 10.9785C83.5705 10.9785 82.4083 11.3486 81.4198 12.0421C80.4313 12.7355 79.661 13.7211 79.2062 14.8742C78.7514 16.0273 78.6326 17.2961 78.8648 18.5201C79.097 19.7441 79.6698 20.8683 80.5107 21.7506C81.3516 22.6328 82.4229 23.2334 83.589 23.4764C84.7552 23.7194 85.9638 23.5939 87.062 23.1158C88.1602 22.6377 89.0986 21.8284 89.7586 20.7903C90.4186 19.7523 90.7705 18.5321 90.7698 17.284C90.7678 15.6117 90.1339 14.0084 89.007 12.8262C87.8802 11.6441 86.3525 10.9795 84.7594 10.9785Z" fill="#9C7339"/>
<path d="M97.7031 24.1656C101.324 24.1656 104.259 21.0847 104.259 17.2841C104.259 13.4835 101.324 10.4026 97.7031 10.4026C94.0826 10.4026 91.1477 13.4835 91.1477 17.2841C91.1477 21.0847 94.0826 24.1656 97.7031 24.1656Z" fill="#181818"/>
<path d="M97.7031 24.7377C96.2988 24.7377 94.926 24.3006 93.7583 23.4816C92.5906 22.6625 91.6805 21.4984 91.1431 20.1364C90.6057 18.7744 90.4651 17.2758 90.739 15.8299C91.013 14.384 91.6893 13.0559 92.6823 12.0135C93.6753 10.971 94.9405 10.2611 96.3179 9.97355C97.6953 9.68594 99.1229 9.83355 100.42 10.3977C101.718 10.9619 102.827 11.9172 103.607 13.143C104.387 14.3687 104.804 15.8098 104.804 17.284C104.802 19.2603 104.053 21.155 102.722 22.5524C101.391 23.9498 99.5857 24.7357 97.7031 24.7377ZM97.7031 10.9785C96.5142 10.9785 95.3521 11.3486 94.3636 12.0421C93.3751 12.7355 92.6047 13.7211 92.1499 14.8742C91.6951 16.0273 91.5763 17.2961 91.8085 18.5201C92.0407 19.7441 92.6135 20.8683 93.4544 21.7506C94.2954 22.6328 95.3667 23.2334 96.5328 23.4764C97.6989 23.7194 98.9075 23.5939 100.006 23.1158C101.104 22.6377 102.042 21.8284 102.702 20.7903C103.362 19.7523 103.714 18.5321 103.714 17.284C103.713 15.6114 103.079 14.0075 101.952 12.8251C100.825 11.6427 99.2966 10.9785 97.7031 10.9785Z" fill="#9C7339"/>
</g>
<path d="M87.7828 28.3195H17.8567L17.3807 28.0258L6.31201 7.09894L6.78804 6.24829H98.8406L99.3166 7.09894L88.2588 28.0258L87.7828 28.3195ZM18.1692 27.1751H87.463L97.9285 7.39267H7.71467L18.1692 27.1751Z" fill="#9C7339"/>
<path d="M99.829 0.572266H5.32723C3.62536 0.572266 2.24573 2.02052 2.24573 3.80703V3.82229C2.24573 5.60881 3.62536 7.05706 5.32723 7.05706H99.829C101.531 7.05706 102.91 5.60881 102.91 3.82229V3.80703C102.91 2.02052 101.531 0.572266 99.829 0.572266Z" fill="#181818"/>
<path d="M99.8326 7.62917H5.3272C4.36345 7.62917 3.43917 7.22728 2.75769 6.51191C2.07621 5.79653 1.69336 4.82628 1.69336 3.81459C1.69336 2.8029 2.07621 1.83264 2.75769 1.11727C3.43917 0.401893 4.36345 0 5.3272 0L99.8326 0C100.796 0 101.721 0.401893 102.402 1.11727C103.084 1.83264 103.466 2.8029 103.466 3.81459C103.466 4.82628 103.084 5.79653 102.402 6.51191C101.721 7.22728 100.796 7.62917 99.8326 7.62917ZM5.3272 1.14438C4.65257 1.14438 4.00558 1.4257 3.52854 1.92646C3.05151 2.42722 2.78351 3.1064 2.78351 3.81459C2.78351 4.52277 3.05151 5.20195 3.52854 5.70271C4.00558 6.20347 4.65257 6.4848 5.3272 6.4848H99.8326C100.507 6.4848 101.154 6.20347 101.631 5.70271C102.108 5.20195 102.376 4.52277 102.376 3.81459C102.376 3.1064 102.108 2.42722 101.631 1.92646C101.154 1.4257 100.507 1.14438 99.8326 1.14438H5.3272Z" fill="#9C7339"/>
<path d="M318.634 93.7091L367 89.9746L318.634 86.2402L358.748 57.6308L315.091 79.824L336.232 33.9956L308.975 76.1048L305.421 25.3289L301.863 76.1048L274.606 33.9956L295.751 79.824L252.094 57.6308L292.205 86.2402L243.838 89.9746L292.205 93.7091L252.094 122.319L295.748 100.125L274.606 145.954L301.863 103.848L305.421 154.62L308.975 103.848L336.232 145.954L315.091 100.125L358.744 122.322L318.634 93.7091Z" fill="#181818"/>
</g>
<defs>
<clipPath id="clip0_32_333">
<rect width="367" height="244" fill="white"/>
</clipPath>
</defs>
</svg>
