<svg width="595" height="34" viewBox="0 0 595 34" fill="none" xmlns="http://www.w3.org/2000/svg">
<path d="M11.48 2.44C7.88 2.48 5.96 4.12 5.96 6.28C6.04 14.04 25.8 17.48 22.24 25.76C21.28 28.04 18.68 29.88 15.16 30H13.52C8.64 29.84 3.32 28.28 1.8 28.8L1 25.76H1.04C5.4 25.76 10.12 29.72 14.96 29.64C18.6 29.56 20.48 27.92 20.48 25.76C20.4 18 0.64 14.56 4.2 6.28C5.16 4 7.76 2.16 11.28 2H12.92C17.84 2.2 23.16 3.76 24.68 3.24L25.48 6.28H25.44C21.04 6.28 16.32 2.32 11.48 2.44ZM42.7153 9.56H49.9153V30H49.5153C48.0753 25.56 41.6753 30.16 38.3153 29.96C33.9553 29.72 29.7953 27.04 29.7953 21.84V12.76C29.7953 11.24 28.5953 10 26.9953 10H25.7953V9.56H32.9953V21.48C32.9953 24.84 34.3153 29.32 38.0753 29.44C41.2753 29.64 43.5153 27.64 46.7553 27.64V12.76C46.7553 11.24 45.5153 10 43.9953 10H42.7153V9.56ZM65.6116 9.56C77.9316 9.88 81.1316 29.96 64.0516 30C61.8916 30 57.3716 27.88 56.1716 30H55.7316V5.2C55.7316 3.64 54.4916 2.4 52.9316 2.4H51.7316V1.96H58.9316V11.72C60.8116 12 62.4116 9.52 65.6116 9.56ZM63.8116 29.16C71.3316 27.4 77.2516 15.4 69.0116 11.08C63.2916 8.04 62.6916 14.88 58.9316 14.88V28.64C60.9316 28.84 61.8516 29.6 63.8116 29.16ZM83.8144 12.68C83.8944 18.36 102.974 20.04 99.4144 26.88C98.5744 28.56 95.0544 30.04 91.9344 30.04H90.4544C86.1344 29.88 81.4944 28.68 80.0944 29.12C80.0544 28.88 79.0544 25.92 79.1744 25.92C83.0144 25.92 87.4944 29.64 91.7744 29.6C94.9344 29.56 96.6144 28.44 96.6144 26.88C96.5344 21.24 77.4144 19.68 81.0144 12.68C81.8544 11.04 85.3744 9.56 88.4944 9.56H89.9744C94.2944 9.72 98.9344 10.84 100.294 10.48L101.334 13.64C97.2144 13.64 93.0544 9.88 88.6544 10C85.4544 10.04 83.8144 11.08 83.8144 12.68ZM121.46 28.2C123.54 27.08 124.02 26.48 124.26 26.04V26.84C123.54 27.52 122.7 28.08 121.74 28.56C116.06 31.44 108.9 29.88 105.7 25.04C102.58 20.2 104.62 13.88 110.3 11.04C117.18 7.56 118.98 11.36 123.42 11.08L124.26 14.28C121.02 14.56 117.02 7.68 111.02 11.28C101.78 16.84 112.06 33.36 121.46 28.2ZM144.178 9.56L145.258 12.68C142.978 12.76 142.058 10.08 137.978 10C135.258 10 134.018 11.76 133.978 13.52V30H126.778V29.6H127.978C129.538 29.6 130.778 28.36 130.778 26.8V12.76C130.778 11.24 129.538 10 127.978 10H126.778V9.56H133.978V12.08C134.578 10.48 135.978 9.56 137.938 9.56C141.818 9.56 141.618 10.4 144.178 9.56ZM151.373 7.16C149.773 7.16 148.453 6 148.453 4.6C148.453 3.16 149.773 1.96 151.373 1.96C153.053 1.96 154.333 3.16 154.333 4.6C154.333 6 153.053 7.16 151.373 7.16ZM147.133 9.56H154.333C154.333 18.92 154.333 20.68 154.333 30H147.133V29.6H148.413C149.893 29.6 151.213 28.36 151.213 26.8V12.76C151.213 11.24 149.893 10 148.413 10H147.133V9.56ZM170.026 9.56C182.346 9.88 185.546 29.96 168.466 30C166.306 30 161.786 27.88 160.586 30H160.146V5.2C160.146 3.64 158.906 2.4 157.346 2.4H156.146V1.96H163.346V11.72C165.226 12 166.826 9.52 170.026 9.56ZM168.226 29.16C175.746 27.4 181.666 15.4 173.426 11.08C167.706 8.04 167.106 14.88 163.346 14.88V28.64C165.346 28.84 166.266 29.6 168.226 29.16ZM203.108 11.08L203.948 14.28L188.828 23.6C191.388 27.84 196.388 30.8 201.148 28.2C203.228 27.08 203.668 26.48 203.948 26.04V26.84C203.188 27.52 202.348 28.08 201.388 28.56C195.748 31.44 188.588 29.88 185.388 25.04C182.228 20.2 184.268 13.88 189.948 11.04C196.828 7.56 198.668 11.36 203.108 11.08ZM188.628 23.24L203.188 14.2C200.068 13.56 196.228 7.92 190.668 11.28C186.228 13.96 186.308 19.12 188.628 23.24ZM234.091 29.64V30.04H226.891V29.64H228.091C229.691 29.64 230.891 28.36 230.891 26.84V2.44H223.451C221.891 2.44 220.651 3.68 220.651 5.2V6.48H220.251V2H244.771V6.48H244.331V5.2C244.331 3.68 243.091 2.44 241.571 2.44H234.091V29.64ZM264.124 14.28C266.884 19.08 264.844 25.4 259.404 28.4C254.004 31.44 247.364 30.04 244.484 25.28C241.724 20.56 243.804 14.24 249.204 11.2C254.604 8.16 261.324 9.52 264.124 14.28ZM259.204 28.04C263.124 25.84 264.044 20.4 261.364 15.84C258.644 11.28 253.324 9.36 249.404 11.52C245.524 13.72 244.564 19.2 247.284 23.76C249.964 28.32 255.324 30.2 259.204 28.04ZM309.854 8.84C313.694 15.44 311.214 24.08 304.214 28C297.294 32 288.534 29.88 284.614 23.24C280.814 16.56 283.294 8 290.254 4C297.174 -2.38419e-06 305.934 2.2 309.854 8.84ZM304.054 27.68C309.454 24.56 310.814 16.8 307.094 10.4C303.334 3.96 295.894 1.24 290.414 4.32C285.014 7.48 283.654 15.2 287.374 21.64C291.134 28.12 298.574 30.76 304.054 27.68ZM330.958 9.56H338.158V30H337.758C336.318 25.56 329.918 30.16 326.558 29.96C322.198 29.72 318.038 27.04 318.038 21.84V12.76C318.038 11.24 316.838 10 315.238 10H314.038V9.56H321.238V21.48C321.238 24.84 322.558 29.32 326.318 29.44C329.518 29.64 331.758 27.64 334.998 27.64V12.76C334.998 11.24 333.758 10 332.238 10H330.958V9.56ZM359.374 9.56L360.454 12.68C358.174 12.76 357.254 10.08 353.174 10C350.454 10 349.214 11.76 349.174 13.52V30H341.974V29.6H343.174C344.734 29.6 345.974 28.36 345.974 26.8V12.76C345.974 11.24 344.734 10 343.174 10H341.974V9.56H349.174V12.08C349.774 10.48 351.174 9.56 353.134 9.56C357.014 9.56 356.814 10.4 359.374 9.56ZM380.194 26.84C380.194 19.64 380.194 12.4 380.194 5.2C380.194 3.68 378.954 2.44 377.474 2.44C377.034 2.44 376.594 2.44 376.194 2.44C376.194 2.32 376.194 2.16 376.194 2.04C378.754 2.04 381.314 2.04 383.834 2.04C384.754 10.76 397.274 14.4 400.274 29.64C400.274 28.68 400.274 27.8 400.274 26.84C400.274 24.36 400.274 21.96 400.274 19.48C400.274 14.76 400.274 10 400.274 5.2C400.274 3.68 399.034 2.44 397.474 2.44C397.114 2.44 396.674 2.44 396.234 2.44C396.234 2.32 396.234 2.16 396.234 2.04C397.634 2.04 398.954 2.04 400.274 2.04C400.434 2.04 400.554 2.04 400.714 2.04C400.714 11.36 400.714 20.72 400.714 30.04C399.514 30.04 398.274 30.04 397.114 30.04C395.234 19.2 382.234 14.84 380.634 2.44C380.634 11.6 380.634 20.8 380.634 30.04C380.474 30.04 380.354 30.04 380.194 30.04C378.874 30.04 377.554 30.04 376.194 30.04C376.194 29.88 376.194 29.8 376.194 29.64C376.594 29.64 377.034 29.64 377.474 29.64C378.954 29.64 380.194 28.36 380.194 26.84ZM424.905 11.08L425.745 14.28L410.625 23.6C413.185 27.84 418.185 30.8 422.945 28.2C425.025 27.08 425.465 26.48 425.745 26.04V26.84C424.985 27.52 424.145 28.08 423.185 28.56C417.545 31.44 410.385 29.88 407.185 25.04C404.025 20.2 406.065 13.88 411.745 11.04C418.625 7.56 420.465 11.36 424.905 11.08ZM410.425 23.24L424.985 14.2C421.865 13.56 418.025 7.92 412.465 11.28C408.025 13.96 408.105 19.12 410.425 23.24ZM441.862 30H439.742C437.342 24.36 434.942 18.76 432.542 13.12C431.222 10.04 429.902 10 428.862 10H428.022V9.56H434.462L441.782 26.64V26.68C443.182 23.72 444.062 21.32 444.582 19.48L441.862 13.12C440.542 10.04 439.222 10 438.222 10H437.302V9.56H443.742L451.062 26.64V26.68C456.342 15.44 453.742 13.76 455.662 9.56H458.862L451.302 27.2L451.862 28.56L451.142 30H449.022L444.902 20.32L441.982 27.2L442.542 28.56L441.862 30ZM465.338 12.68C465.418 18.36 484.498 20.04 480.938 26.88C480.098 28.56 476.578 30.04 473.458 30.04H471.978C467.658 29.88 463.018 28.68 461.618 29.12C461.578 28.88 460.578 25.92 460.698 25.92C464.538 25.92 469.018 29.64 473.298 29.6C476.458 29.56 478.138 28.44 478.138 26.88C478.058 21.24 458.938 19.68 462.538 12.68C463.378 11.04 466.898 9.56 470.018 9.56H471.498C475.818 9.72 480.458 10.84 481.818 10.48L482.858 13.64C478.738 13.64 474.578 9.88 470.178 10C466.978 10.04 465.338 11.08 465.338 12.68ZM488.238 1.96H491.438C491.438 11.32 491.438 20.68 491.438 30H484.238V29.6H485.438C486.998 29.6 488.238 28.36 488.238 26.8V5.2C488.238 3.64 486.998 2.4 485.438 2.4H484.238V1.96H488.238ZM515.335 11.08L516.175 14.28L501.055 23.6C503.615 27.84 508.615 30.8 513.375 28.2C515.455 27.08 515.895 26.48 516.175 26.04V26.84C515.415 27.52 514.575 28.08 513.615 28.56C507.975 31.44 500.815 29.88 497.615 25.04C494.455 20.2 496.495 13.88 502.175 11.04C509.055 7.56 510.895 11.36 515.335 11.08ZM500.855 23.24L515.415 14.2C512.295 13.56 508.455 7.92 502.895 11.28C498.455 13.96 498.535 19.12 500.855 23.24ZM526.852 29.6C531.012 29.48 531.892 26.84 534.212 26.84L533.092 30C530.532 29.16 530.732 30 526.852 29.96C524.092 29.96 522.492 28.16 522.492 25.08C522.492 20.04 522.492 15.04 522.492 10H518.492V9.56H522.492V5.16C522.492 3.64 521.292 2.4 519.692 2.4H518.492V1.96H525.692V9.56H531.252V10H525.692V22.44C524.052 22.44 522.892 23.72 522.892 25.92C522.892 27.76 524.132 29.6 526.852 29.6ZM544.117 29.6C548.277 29.48 549.157 26.84 551.477 26.84L550.357 30C547.797 29.16 547.997 30 544.117 29.96C541.357 29.96 539.757 28.16 539.757 25.08C539.757 20.04 539.757 15.04 539.757 10H535.757V9.56H539.757V5.16C539.757 3.64 538.557 2.4 536.957 2.4H535.757V1.96H542.957V9.56H548.517V10H542.957V22.44C541.317 22.44 540.157 23.72 540.157 25.92C540.157 27.76 541.397 29.6 544.117 29.6ZM572.366 11.08L573.206 14.28L558.086 23.6C560.646 27.84 565.646 30.8 570.406 28.2C572.486 27.08 572.926 26.48 573.206 26.04V26.84C572.446 27.52 571.606 28.08 570.646 28.56C565.006 31.44 557.846 29.88 554.646 25.04C551.486 20.2 553.526 13.88 559.206 11.04C566.086 7.56 567.926 11.36 572.366 11.08ZM557.886 23.24L572.446 14.2C569.326 13.56 565.486 7.92 559.926 11.28C555.486 13.96 555.566 19.12 557.886 23.24ZM593.163 9.56L594.243 12.68C591.963 12.76 591.043 10.08 586.963 10C584.243 10 583.003 11.76 582.963 13.52V30H575.763V29.6H576.963C578.523 29.6 579.763 28.36 579.763 26.8V12.76C579.763 11.24 578.523 10 576.963 10H575.763V9.56H582.963V12.08C583.563 10.48 584.963 9.56 586.923 9.56C590.803 9.56 590.603 10.4 593.163 9.56Z" fill="white"/>
</svg>
