<svg width="340" height="49" viewBox="0 0 340 49" fill="none" xmlns="http://www.w3.org/2000/svg">
<path d="M13.7269 4C17.2069 2.02 21.0469 0.999997 24.7669 0.999997C29.6869 0.999997 32.9869 4.54 37.8469 4.18L39.4069 8.62C32.6269 8.62 30.8269 4.12 24.7069 2.86C21.2269 2.14 17.5069 2.62 14.0869 4.54C5.92688 9.22 3.82688 20.8 9.46688 30.52C15.1669 40.18 26.3269 44.14 34.4269 39.52C36.5269 38.32 38.1469 36.76 39.4069 34.84V36.52C38.0869 37.9 36.5269 39.04 34.7269 40.06C24.3469 46 11.1469 42.82 5.38688 32.86C-0.433125 22.9 3.34688 10 13.7269 4ZM75.5498 19.42C79.6898 26.62 76.6298 36.1 68.4698 40.6C60.3698 45.16 50.4098 43.06 46.0898 35.92C41.9498 28.84 45.0698 19.36 53.1698 14.8C61.2698 10.24 71.3498 12.28 75.5498 19.42ZM68.1698 40.06C74.0498 36.76 75.4298 28.6 71.4098 21.76C67.3298 14.92 59.3498 12.04 53.4698 15.28C47.6498 18.58 46.2098 26.8 50.2898 33.64C54.3098 40.48 62.3498 43.3 68.1698 40.06ZM102.147 12.34C109.107 12.34 116.007 16.42 115.887 24.58V43H105.147V42.4H107.007C109.287 42.4 111.207 40.54 111.207 38.2V25.18C111.207 19.78 108.927 12.58 102.387 13.18C96.1467 13.78 95.9067 20.32 90.5067 20.32V43H79.7067V42.4H81.6267C83.9067 42.4 85.8267 40.54 85.8267 38.2V17.14C85.8267 14.86 83.8467 13 81.6267 13H79.7067V12.34H90.5067V15.58C94.8267 15.58 95.0067 12.34 102.147 12.34ZM131.438 42.4C137.678 42.22 138.998 38.26 142.478 38.26L140.798 43C136.958 41.74 137.258 43 131.438 42.94C127.298 42.94 124.898 40.24 124.898 35.62C124.898 28.06 124.898 20.56 124.898 13H118.898V12.34H124.898V5.74C124.898 3.46 123.098 1.6 120.698 1.6H118.898V0.939998H129.698V12.34H138.038V13H129.698V31.66C127.238 31.66 125.498 33.58 125.498 36.88C125.498 39.64 127.358 42.4 131.438 42.4ZM162.976 12.34C169.456 12.34 174.196 16.48 174.196 23.02V43H173.656C171.136 39.52 162.736 42.94 156.196 43C144.796 43.12 143.836 31.36 153.016 26.74C159.676 23.38 169.516 22 167.956 14.98C163.876 8.62 153.016 18.04 146.836 18.04L147.856 13.3C150.016 13.84 158.056 12.34 162.976 12.34ZM169.516 40.9V22.9C169.516 19.66 169.096 17.38 168.376 15.82C169.936 23.44 160.576 26.26 155.356 29.2C149.176 32.86 150.856 41.56 158.596 41.92C161.956 42.04 166.096 40.6 169.516 40.9ZM206.67 40.3C209.79 38.62 210.51 37.72 210.87 37.06V38.26C209.79 39.28 208.53 40.12 207.09 40.84C198.57 45.16 187.83 42.82 183.03 35.56C178.35 28.3 181.41 18.82 189.93 14.56C200.25 9.34 202.95 15.04 209.61 14.62L210.87 19.42C206.01 19.84 200.01 9.52 191.01 14.92C177.15 23.26 192.57 48.04 206.67 40.3ZM226.828 42.4C233.068 42.22 234.388 38.26 237.868 38.26L236.188 43C232.348 41.74 232.648 43 226.828 42.94C222.688 42.94 220.288 40.24 220.288 35.62C220.288 28.06 220.288 20.56 220.288 13H214.288V12.34H220.288V5.74C220.288 3.46 218.488 1.6 216.088 1.6H214.288V0.939998H225.088V12.34H233.428V13H225.088V31.66C222.628 31.66 220.888 33.58 220.888 36.88C220.888 39.64 222.748 42.4 226.828 42.4ZM297.166 7.42V5.8C297.166 3.52 295.306 1.66 293.026 1.66H291.106V0.999997H297.826V27.7C297.826 29.14 297.586 30.58 297.166 31.9C295.306 38.32 289.426 43.06 282.466 43.06C278.386 43.06 274.606 41.38 271.846 38.74C268.906 35.98 267.166 32.08 267.166 27.7V5.8C267.166 3.52 265.186 1.66 262.966 1.66H261.046V0.999997H271.846V27.4C271.846 29.86 271.786 42.46 282.466 42.46C290.566 42.46 297.166 35.86 297.166 27.7V7.42ZM310.515 17.02C310.635 25.54 339.255 28.06 333.915 38.32C332.655 40.84 327.375 43.06 322.695 43.06H320.475C313.995 42.82 307.035 41.02 304.935 41.68C304.875 41.32 303.375 36.88 303.555 36.88C309.315 36.88 316.035 42.46 322.455 42.4C327.195 42.34 329.715 40.66 329.715 38.32C329.595 29.86 300.915 27.52 306.315 17.02C307.575 14.56 312.855 12.34 317.535 12.34H319.755C326.235 12.58 333.195 14.26 335.235 13.72L336.795 18.46C330.615 18.46 324.375 12.82 317.775 13C312.975 13.06 310.515 14.62 310.515 17.02Z" fill="#9C7339"/>
</svg>
