<svg width="679" height="137" viewBox="0 0 679 137" fill="none" xmlns="http://www.w3.org/2000/svg">
<path d="M11.4861 0.999997V42.46C24.4461 42.46 27.6861 36.64 37.4061 38.32L35.7261 43C29.0061 40.54 19.9461 43 11.4861 43H0.686094V42.46H2.48609C4.82609 42.46 6.68609 40.54 6.68609 38.26V5.8C6.68609 3.52 4.82609 1.66 2.48609 1.66H0.686094V0.999997H11.4861ZM68.5963 14.62L69.8563 19.42L47.1763 33.4C51.0163 39.76 58.5163 44.2 65.6563 40.3C68.7763 38.62 69.4363 37.72 69.8563 37.06V38.26C68.7163 39.28 67.4562 40.12 66.0163 40.84C57.5563 45.16 46.8163 42.82 42.0163 35.56C37.2763 28.3 40.3363 18.82 48.8563 14.56C59.1763 9.34 61.9363 15.04 68.5963 14.62ZM46.8763 32.86L68.7163 19.3C64.0363 18.34 58.2763 9.88 49.9363 14.92C43.2763 18.94 43.3963 26.68 46.8763 32.86ZM85.8711 42.4C92.1111 42.22 93.4311 38.26 96.9111 38.26L95.2311 43C91.3911 41.74 91.6911 43 85.8711 42.94C81.7311 42.94 79.3311 40.24 79.3311 35.62C79.3311 28.06 79.3311 20.56 79.3311 13H73.3311V12.34H79.3311V5.74C79.3311 3.46 77.5311 1.6 75.1311 1.6H73.3311V0.939998H84.1311V12.34H92.4711V13H84.1311V31.66C81.6711 31.66 79.9311 33.58 79.9311 36.88C79.9311 39.64 81.7911 42.4 85.8711 42.4ZM103.957 1.6C106.357 1.6 108.397 3.34 108.397 5.44C108.397 5.86 108.277 6.22 108.157 6.58C107.377 9.52 103.597 11.92 100.717 11.92L99.5773 10C101.557 10 104.797 10.24 106.177 8.8C105.517 9.1 104.737 9.28 103.957 9.28C101.557 9.28 99.5773 7.6 99.5773 5.44C99.5773 3.34 101.557 1.6 103.957 1.6ZM120.749 17.02C120.869 25.54 149.489 28.06 144.149 38.32C142.889 40.84 137.609 43.06 132.929 43.06H130.709C124.229 42.82 117.269 41.02 115.169 41.68C115.109 41.32 113.609 36.88 113.789 36.88C119.549 36.88 126.269 42.46 132.689 42.4C137.429 42.34 139.949 40.66 139.949 38.32C139.829 29.86 111.149 27.52 116.549 17.02C117.809 14.56 123.089 12.34 127.769 12.34H129.989C136.469 12.58 143.429 14.26 145.469 13.72L147.029 18.46C140.849 18.46 134.609 12.82 128.009 13C123.209 13.06 120.749 14.62 120.749 17.02ZM206.047 1.66C202.927 15.4 199.807 29.2 196.687 43C194.947 43 193.267 43 191.467 43C193.507 32.08 178.147 17.14 178.147 1.66C178.147 15.4 178.147 29.2 178.147 43C175.867 43 173.647 43 171.487 43C171.487 42.82 171.487 42.7 171.487 42.46C172.087 42.46 172.747 42.46 173.287 42.46C175.627 42.46 177.487 40.54 177.487 38.26C177.487 27.46 177.487 16.6 177.487 5.8C177.487 3.52 175.627 1.66 173.287 1.66C172.747 1.66 172.087 1.66 171.487 1.66C171.487 1.48 171.487 1.24 171.487 0.999997C175.327 0.999997 179.047 0.999997 182.947 0.999997C182.467 15.76 196.327 26.86 196.207 42.46C199.387 28.66 202.507 14.86 205.627 0.999997C207.307 0.999997 209.107 0.999997 210.847 0.999997C210.847 15.04 210.847 29.08 210.847 43C207.187 43 203.647 43 199.987 43C199.987 42.82 199.987 42.7 199.987 42.46C200.647 42.46 201.307 42.46 201.847 42.46C204.187 42.46 206.047 40.54 206.047 38.26C206.047 26.02 206.047 13.84 206.047 1.66ZM234.773 12.34C241.253 12.34 245.993 16.48 245.993 23.02V43H245.453C242.933 39.52 234.533 42.94 227.993 43C216.593 43.12 215.633 31.36 224.813 26.74C231.473 23.38 241.313 22 239.753 14.98C235.673 8.62 224.813 18.04 218.633 18.04L219.653 13.3C221.813 13.84 229.853 12.34 234.773 12.34ZM241.313 40.9V22.9C241.313 19.66 240.893 17.38 240.173 15.82C241.733 23.44 232.373 26.26 227.153 29.2C220.973 32.86 222.653 41.56 230.393 41.92C233.753 42.04 237.893 40.6 241.313 40.9ZM261.787 0.819999C261.787 14.62 261.787 29.02 261.787 42.82H250.987V42.22H252.907C255.127 42.22 257.107 40.3 257.107 38.02V5.56C257.107 3.28 255.127 1.48 252.907 1.48H250.987V0.819999H261.787ZM277.507 42.94C274.747 35.26 278.647 29.5 266.167 25C261.907 23.5 264.367 20.98 266.827 19.66C270.487 17.74 279.487 17.86 275.647 12.28H280.387C283.687 18.82 266.707 18.28 267.067 21.82C267.127 22.6 267.907 23.44 269.347 24.4C277.207 29.92 279.847 37.6 282.007 42.94H277.507ZM314.221 14.62L315.481 19.42L292.801 33.4C296.641 39.76 304.141 44.2 311.281 40.3C314.401 38.62 315.061 37.72 315.481 37.06V38.26C314.341 39.28 313.081 40.12 311.641 40.84C303.181 45.16 292.441 42.82 287.641 35.56C282.901 28.3 285.961 18.82 294.481 14.56C304.801 9.34 307.561 15.04 314.221 14.62ZM292.501 32.86L314.341 19.3C309.661 18.34 303.901 9.88 295.561 14.92C288.901 18.94 289.021 26.68 292.501 32.86ZM356.075 1.66C350.675 1.72 347.795 4.18 347.795 7.42C347.915 19.06 377.555 24.22 372.215 36.64C370.775 40.06 366.875 42.82 361.595 43H359.135C351.815 42.76 343.835 40.42 341.555 41.2L340.355 36.64H340.415C346.955 36.64 354.035 42.58 361.295 42.46C366.755 42.34 369.575 39.88 369.575 36.64C369.455 25 339.815 19.84 345.155 7.42C346.595 4 350.495 1.24 355.775 0.999997H358.235C365.615 1.3 373.595 3.64 375.875 2.86L377.075 7.42H377.015C370.415 7.42 363.335 1.48 356.075 1.66ZM410.843 19.42C414.983 26.62 411.923 36.1 403.763 40.6C395.663 45.16 385.703 43.06 381.383 35.92C377.243 28.84 380.363 19.36 388.463 14.8C396.563 10.24 406.643 12.28 410.843 19.42ZM403.463 40.06C409.343 36.76 410.723 28.6 406.703 21.76C402.623 14.92 394.643 12.04 388.763 15.28C382.943 18.58 381.503 26.8 385.583 33.64C389.603 40.48 397.643 43.3 403.463 40.06ZM462.88 12.34C469.78 12.34 476.62 16.42 476.62 24.58V43.06H465.82V42.4H467.68C470.02 42.4 471.88 40.54 471.88 38.2V25.18C471.88 19.78 469.6 12.58 463.12 13.18C457.18 13.78 455.74 19.48 451.18 20.26V43H440.38V42.4H442.24C444.58 42.4 446.44 40.54 446.44 38.2V25.18C446.44 19.78 444.16 12.58 437.68 13.18C431.32 13.78 431.2 20.32 425.8 20.32V43H415V42.4H416.8C419.14 42.4 421 40.54 421 38.2V17.14C421 14.86 419.14 13 416.8 13H415V12.34H425.8V15.58C430.12 15.58 430.18 12.34 437.44 12.34C440.98 12.34 444.52 13.42 447.16 15.58C449.14 17.2 451.72 15.88 453.76 15.04C456.04 14.2 457.42 12.34 462.88 12.34ZM511.975 14.62L513.235 19.42L490.555 33.4C494.395 39.76 501.895 44.2 509.035 40.3C512.155 38.62 512.815 37.72 513.235 37.06V38.26C512.095 39.28 510.835 40.12 509.395 40.84C500.935 45.16 490.195 42.82 485.395 35.56C480.655 28.3 483.715 18.82 492.235 14.56C502.555 9.34 505.315 15.04 511.975 14.62ZM490.255 32.86L512.095 19.3C507.415 18.34 501.655 9.88 493.315 14.92C486.655 18.94 486.775 26.68 490.255 32.86ZM529.25 42.4C535.49 42.22 536.81 38.26 540.29 38.26L538.61 43C534.77 41.74 535.07 43 529.25 42.94C525.11 42.94 522.71 40.24 522.71 35.62C522.71 28.06 522.71 20.56 522.71 13H516.71V12.34H522.71V5.74C522.71 3.46 520.91 1.6 518.51 1.6H516.71V0.939998H527.51V12.34H535.85V13H527.51V31.66C525.05 31.66 523.31 33.58 523.31 36.88C523.31 39.64 525.17 42.4 529.25 42.4ZM565.048 12.34C572.008 12.34 578.788 16.42 578.788 24.58V43H567.988V42.4H569.848C572.188 42.4 574.048 40.54 574.048 38.2V25.18C574.048 19.78 571.768 12.58 565.288 13.18C558.928 13.78 558.808 20.32 553.408 20.32V43H542.608V42.4H544.408C546.748 42.4 548.608 40.54 548.608 38.2V5.8C548.608 3.46 546.808 1.6 544.408 1.6H542.608V0.939998H553.408V15.58C557.728 15.58 557.908 12.34 565.048 12.34ZM590.524 8.74C588.124 8.74 586.144 7 586.144 4.9C586.144 2.74 588.124 0.939998 590.524 0.939998C593.044 0.939998 594.964 2.74 594.964 4.9C594.964 7 593.044 8.74 590.524 8.74ZM584.164 12.34H594.964C594.964 26.38 594.964 29.02 594.964 43H584.164V42.4H586.084C588.304 42.4 590.284 40.54 590.284 38.2V17.14C590.284 14.86 588.304 13 586.084 13H584.164V12.34ZM623.123 12.34C630.083 12.34 636.983 16.42 636.863 24.58V43H626.123V42.4H627.983C630.263 42.4 632.183 40.54 632.183 38.2V25.18C632.183 19.78 629.903 12.58 623.363 13.18C617.123 13.78 616.883 20.32 611.483 20.32V43H600.683V42.4H602.603C604.883 42.4 606.803 40.54 606.803 38.2V17.14C606.803 14.86 604.823 13 602.603 13H600.683V12.34H611.483V15.58C615.803 15.58 615.983 12.34 623.123 12.34ZM648.589 42.52C645.289 47.68 673.129 42.7 673.129 51.04C673.129 53.32 669.769 54.82 663.469 55C659.389 55.18 649.489 52.42 647.209 53.74C647.149 53.38 645.649 49 645.829 49C651.589 49 657.829 54.58 663.469 54.46C666.169 54.4 668.269 52.72 668.389 51.04C668.629 44.56 644.389 48.64 648.049 42.16C648.349 41.74 648.769 41.32 649.369 40.9C647.749 39.76 646.429 38.32 645.349 36.58C641.089 29.38 644.209 19.96 652.369 15.4C656.449 13.06 661.069 12.46 665.149 13.42C668.929 14.02 672.469 14.98 675.469 12.94L676.549 16.9C674.509 16.9 672.469 16.3 670.429 15.64C672.169 16.78 673.609 18.22 674.689 20.08C678.949 27.22 675.769 36.64 667.669 41.2C661.789 44.5 654.889 44.32 649.969 41.26C649.369 41.62 648.829 42.04 648.589 42.52ZM652.729 15.94C646.849 19.24 645.349 27.4 649.429 34.24C653.509 41.08 661.549 44.02 667.369 40.72C673.189 37.42 674.629 29.2 670.549 22.36C666.529 15.52 658.549 12.7 652.729 15.94ZM113.211 85C116.691 83.02 120.531 82 124.191 82C129.111 82 132.411 85.54 137.331 85.18L138.831 89.62C132.051 89.62 130.251 85.12 124.071 83.86C120.591 83.14 116.931 83.62 113.451 85.54C105.351 90.22 103.311 101.8 108.891 111.52C114.531 121.18 125.691 125.14 133.911 120.52L134.091 120.4V98.62H126.411C124.131 98.62 122.211 100.48 122.211 102.82V107.92H121.671V88.42H122.211V93.76C122.211 96.1 124.131 97.96 126.411 97.96H138.831V117.58C137.451 118.84 135.951 120.04 134.211 121.06C123.771 127 110.631 123.82 104.811 113.86C98.9907 103.9 102.771 91 113.211 85ZM169.078 93.34L170.698 98.02C167.278 98.14 165.898 94.12 159.778 94C155.698 94 153.838 96.64 153.778 99.28V124H142.978V123.4H144.778C147.118 123.4 148.978 121.54 148.978 119.2V98.14C148.978 95.86 147.118 94 144.778 94H142.978V93.34H153.778V97.12C154.678 94.72 156.778 93.34 159.718 93.34C165.538 93.34 165.238 94.6 169.078 93.34ZM201.165 95.62L202.425 100.42L179.745 114.4C183.585 120.76 191.085 125.2 198.225 121.3C201.345 119.62 202.005 118.72 202.425 118.06V119.26C201.285 120.28 200.025 121.12 198.585 121.84C190.125 126.16 179.385 123.82 174.585 116.56C169.845 109.3 172.905 99.82 181.425 95.56C191.745 90.34 194.505 96.04 201.165 95.62ZM179.445 113.86L201.285 100.3C196.605 99.34 190.845 90.88 182.505 95.92C175.845 99.94 175.965 107.68 179.445 113.86ZM224.079 93.34C230.559 93.34 235.299 97.48 235.299 104.02V124H234.759C232.239 120.52 223.839 123.94 217.299 124C205.899 124.12 204.939 112.36 214.119 107.74C220.779 104.38 230.619 103 229.059 95.98C224.979 89.62 214.119 99.04 207.939 99.04L208.959 94.3C211.119 94.84 219.159 93.34 224.079 93.34ZM230.619 121.9V103.9C230.619 100.66 230.199 98.38 229.479 96.82C231.039 104.44 221.679 107.26 216.459 110.2C210.279 113.86 211.959 122.56 219.699 122.92C223.059 123.04 227.199 121.6 230.619 121.9ZM250.959 123.4C257.199 123.22 258.519 119.26 261.999 119.26L260.319 124C256.479 122.74 256.779 124 250.959 123.94C246.819 123.94 244.419 121.24 244.419 116.62C244.419 109.06 244.419 101.56 244.419 94H238.419V93.34H244.419V86.74C244.419 84.46 242.619 82.6 240.219 82.6H238.419V81.94H249.219V93.34H257.559V94H249.219V112.66C246.759 112.66 245.019 114.58 245.019 117.88C245.019 120.64 246.879 123.4 250.959 123.4ZM306.057 123.46V124.06H295.257V123.46H297.057C299.457 123.46 301.257 121.54 301.257 119.26V82.66H290.097C287.757 82.66 285.897 84.52 285.897 86.8V88.72H285.297V82H322.077V88.72H321.417V86.8C321.417 84.52 319.557 82.66 317.277 82.66H306.057V123.46ZM351.106 100.42C355.246 107.62 352.186 117.1 344.026 121.6C335.926 126.16 325.966 124.06 321.646 116.92C317.506 109.84 320.626 100.36 328.726 95.8C336.826 91.24 346.906 93.28 351.106 100.42ZM343.726 121.06C349.606 117.76 350.986 109.6 346.966 102.76C342.886 95.92 334.906 93.04 329.026 96.28C323.206 99.58 321.766 107.8 325.846 114.64C329.866 121.48 337.906 124.3 343.726 121.06ZM363.501 123.52C360.201 128.68 388.041 123.7 388.041 132.04C388.041 134.32 384.681 135.82 378.381 136C374.301 136.18 364.401 133.42 362.121 134.74C362.061 134.38 360.561 130 360.741 130C366.501 130 372.741 135.58 378.381 135.46C381.081 135.4 383.181 133.72 383.301 132.04C383.541 125.56 359.301 129.64 362.961 123.16C363.261 122.74 363.681 122.32 364.281 121.9C362.661 120.76 361.341 119.32 360.261 117.58C356.001 110.38 359.121 100.96 367.281 96.4C371.361 94.06 375.981 93.46 380.061 94.42C383.841 95.02 387.381 95.98 390.381 93.94L391.461 97.9C389.421 97.9 387.381 97.3 385.341 96.64C387.081 97.78 388.521 99.22 389.601 101.08C393.861 108.22 390.681 117.64 382.581 122.2C376.701 125.5 369.801 125.32 364.881 122.26C364.281 122.62 363.741 123.04 363.501 123.52ZM367.641 96.94C361.761 100.24 360.261 108.4 364.341 115.24C368.421 122.08 376.461 125.02 382.281 121.72C388.101 118.42 389.541 110.2 385.461 103.36C381.441 96.52 373.461 93.7 367.641 96.94ZM426.106 95.62L427.366 100.42L404.686 114.4C408.526 120.76 416.026 125.2 423.166 121.3C426.286 119.62 426.946 118.72 427.366 118.06V119.26C426.226 120.28 424.966 121.12 423.526 121.84C415.066 126.16 404.326 123.82 399.526 116.56C394.786 109.3 397.846 99.82 406.366 95.56C416.686 90.34 419.446 96.04 426.106 95.62ZM404.386 113.86L426.226 100.3C421.546 99.34 415.786 90.88 407.446 95.92C400.786 99.94 400.906 107.68 404.386 113.86ZM443.381 123.4C449.621 123.22 450.941 119.26 454.421 119.26L452.741 124C448.901 122.74 449.201 124 443.381 123.94C439.241 123.94 436.841 121.24 436.841 116.62C436.841 109.06 436.841 101.56 436.841 94H430.841V93.34H436.841V86.74C436.841 84.46 435.041 82.6 432.641 82.6H430.841V81.94H441.641V93.34H449.981V94H441.641V112.66C439.181 112.66 437.441 114.58 437.441 117.88C437.441 120.64 439.301 123.4 443.381 123.4ZM479.179 93.34C486.139 93.34 492.919 97.42 492.919 105.58V124H482.119V123.4H483.979C486.319 123.4 488.179 121.54 488.179 119.2V106.18C488.179 100.78 485.899 93.58 479.419 94.18C473.059 94.78 472.939 101.32 467.539 101.32V124H456.739V123.4H458.539C460.879 123.4 462.739 121.54 462.739 119.2V86.8C462.739 84.46 460.939 82.6 458.539 82.6H456.739V81.94H467.539V96.58C471.859 96.58 472.039 93.34 479.179 93.34ZM528.235 95.62L529.495 100.42L506.815 114.4C510.655 120.76 518.155 125.2 525.295 121.3C528.415 119.62 529.075 118.72 529.495 118.06V119.26C528.355 120.28 527.095 121.12 525.655 121.84C517.195 126.16 506.455 123.82 501.655 116.56C496.915 109.3 499.975 99.82 508.495 95.56C518.815 90.34 521.575 96.04 528.235 95.62ZM506.515 113.86L528.355 100.3C523.675 99.34 517.915 90.88 509.575 95.92C502.915 99.94 503.035 107.68 506.515 113.86ZM559.43 93.34L561.05 98.02C557.63 98.14 556.25 94.12 550.13 94C546.05 94 544.19 96.64 544.13 99.28V124H533.33V123.4H535.13C537.47 123.4 539.33 121.54 539.33 119.2V98.14C539.33 95.86 537.47 94 535.13 94H533.33V93.34H544.13V97.12C545.03 94.72 547.13 93.34 550.07 93.34C555.89 93.34 555.59 94.6 559.43 93.34ZM570.959 116.26C573.359 116.26 575.339 118.06 575.339 120.1C575.339 122.26 573.359 124.06 570.959 124.06C568.439 124.06 566.459 122.26 566.459 120.1C566.459 118.06 568.439 116.26 570.959 116.26ZM568.499 86.62C568.499 84.34 566.639 82.42 564.299 82.42H562.499V81.82H573.299V82.42L571.199 113.44H570.599L568.499 86.62Z" fill="white"/>
</svg>
