<svg width="42" height="31" viewBox="0 0 42 31" fill="none" xmlns="http://www.w3.org/2000/svg">
<path d="M40.5201 29.0032C40.3976 29.018 40.1512 29.0322 39.6197 29.0412C38.5676 29.0589 36.5666 29.055 32.6154 29.047C28.6156 29.039 26.6176 29.035 25.5892 29.0124C25.1928 29.0037 24.9708 28.9925 24.8457 28.9817C24.8414 28.9775 24.837 28.9731 24.8326 28.9687C24.8284 28.9645 24.8242 28.9604 24.8202 28.9563C24.8095 28.8333 24.7982 28.6157 24.7892 28.2296C24.7655 27.2163 24.7595 25.2482 24.7475 21.3076C24.7475 21.3073 24.7475 21.307 24.7475 21.3066M40.5201 29.0032L23.7734 21.3096L24.7475 21.3066M40.5201 29.0032C40.5235 29.0001 40.5272 28.9967 40.531 28.9929C40.5369 28.9869 40.5419 28.9812 40.5459 28.9764C40.5463 28.9734 40.5467 28.9701 40.5471 28.9666C40.562 28.8479 40.5764 28.6072 40.5854 28.0775C40.6032 27.0365 40.5993 25.0493 40.5913 21.097C40.5793 17.1204 40.5733 15.1341 40.5496 14.1117C40.5405 13.7204 40.5292 13.5003 40.5184 13.376C40.5144 13.372 40.5103 13.3679 40.5062 13.3638C40.4961 13.3537 40.4862 13.3441 40.4767 13.3351C40.4336 13.3309 40.37 13.3258 40.279 13.321C39.8379 13.2976 39.0107 13.2896 37.3382 13.2775L33.9095 13.2536L32.9465 13.2469L32.9421 12.2839L32.9182 6.97255C32.9061 4.3095 32.9001 3.00369 32.8758 2.32362C32.8665 2.06172 32.8551 1.92875 32.847 1.86367C32.8427 1.8568 32.8386 1.8504 32.8348 1.84444C32.5615 1.80102 32.0185 1.79482 30.7191 1.79482L28.7731 1.79482L28.7409 1.82438L28.741 1.82445L28.7308 1.83356C28.7237 1.83993 28.7193 1.84367 28.7166 1.84575C28.7168 1.84607 28.7166 1.84698 28.7155 1.8489C28.678 1.91598 28.605 2.07405 28.4583 2.46949C28.1706 3.2449 27.6739 4.72307 26.6795 7.69108C26.6794 7.69129 26.6793 7.69149 26.6793 7.69169L24.7318 13.5355M40.5201 29.0032L24.7318 13.5355M24.7475 21.3066L24.7318 13.5355M24.7475 21.3066L24.7318 13.5355M40.5051 13.2644C40.5051 13.2645 40.5052 13.2652 40.5055 13.2665L40.5051 13.2644ZM40.6054 13.4758C40.6072 13.4782 40.6075 13.4784 40.6057 13.4762L40.6054 13.4758ZM24.8335 29.0676C24.8335 29.0676 24.8333 29.0668 24.833 29.0652L24.8335 29.0676ZM24.9455 29.068C24.9477 29.0697 24.9475 29.0694 24.9451 29.0677L24.9455 29.068ZM24.7372 28.969C24.7357 28.9687 24.7351 28.9686 24.7352 28.9686L24.7372 28.969ZM24.7333 28.8567C24.7315 28.8542 24.7313 28.854 24.7331 28.8563L24.7333 28.8567Z" stroke="#9C7339" stroke-width="1.94829"/>
<path d="M17.3772 29.0042C17.3693 29.0115 17.3616 29.0181 17.3543 29.024C17.3393 29.0361 17.3299 29.0419 17.3272 29.0435L17.3772 29.0042ZM17.3772 29.0042C17.3362 29.0074 17.2837 29.0108 17.2173 29.0141C16.9628 29.0271 16.564 29.0374 15.9566 29.0453C14.7458 29.0611 12.7563 29.0671 9.5461 29.0711C5.63872 29.0711 3.66788 29.0711 2.63182 29.0514C2.10492 29.0414 1.86292 29.0267 1.74213 29.0115C1.73463 29.0106 1.72818 29.0097 1.7227 29.0089C1.71112 29.0016 1.70168 28.9922 1.69446 28.9814C1.69371 28.9762 1.69289 28.9701 1.69201 28.9632C1.67682 28.8426 1.66206 28.6011 1.65202 28.0757C1.63227 27.0426 1.63221 25.0792 1.63221 21.1903L1.63221 13.4494L3.53989 7.73999C3.53994 7.73984 3.53999 7.73969 3.54004 7.73953C4.07879 6.13331 4.58518 4.64562 4.96745 3.54277C5.15876 2.99083 5.31806 2.53795 5.43438 2.21571C5.49277 2.05396 5.53877 1.92947 5.57181 1.84344C5.57228 1.84221 5.57275 1.841 5.57321 1.83979C5.86827 1.8012 6.43988 1.7992 7.72233 1.81092C7.72249 1.81092 7.72266 1.81092 7.72282 1.81092L9.6755 1.8307L9.68867 1.84418L9.69775 1.85347L9.70707 1.86252L9.71675 1.87191L9.73891 6.87568L9.73892 6.87712L9.7549 12.2826L9.75775 13.2472L10.7223 13.2538L14.191 13.2777C14.1911 13.2777 14.1912 13.2777 14.1912 13.2777C15.8874 13.2898 16.7269 13.2978 17.1743 13.3212C17.2683 13.3261 17.3336 13.3313 17.3777 13.3356C17.3872 13.3446 17.3969 13.3541 17.4069 13.364C17.4112 13.3682 17.4154 13.3725 17.4195 13.3767C17.4301 13.4984 17.4413 13.7134 17.4503 14.0943C17.4739 15.0986 17.48 17.0488 17.492 20.9538C17.496 23.1147 17.496 25.1057 17.492 26.5737C17.49 27.3081 17.487 27.91 17.483 28.3365C17.481 28.5501 17.4788 28.7169 17.4764 28.8334C17.476 28.8535 17.4756 28.8717 17.4752 28.8879C17.4651 28.9039 17.4515 28.9232 17.4341 28.9442C17.4152 28.967 17.3956 28.9873 17.3772 29.0042ZM5.61289 1.74118C5.61294 1.7409 5.6115 1.74399 5.60841 1.75126C5.61129 1.74508 5.61283 1.74147 5.61289 1.74118ZM17.4722 28.9798C17.4718 28.9846 17.4717 28.9874 17.4717 28.9876C17.4717 28.9878 17.4719 28.9853 17.4722 28.9798ZM17.4063 13.2656C17.4062 13.2657 17.4064 13.2663 17.4067 13.2676L17.4063 13.2656ZM17.5061 13.476C17.508 13.4786 17.5083 13.4788 17.5064 13.4764L17.5061 13.476ZM17.4937 28.9917C17.4933 28.9915 17.4874 28.9923 17.477 28.9945C17.4888 28.9928 17.494 28.9918 17.4937 28.9917Z" stroke="#9C7339" stroke-width="1.94829"/>
</svg>
