<svg width="27" height="27" viewBox="0 0 27 27" fill="none" xmlns="http://www.w3.org/2000/svg">
<g clip-path="url(#clip0_32_307)">
<path d="M18.5625 23.625H25.3125L27 20.25V27H16.875V21.3519C20.3327 19.8619 22.7812 16.1528 22.7812 11.8125C22.7812 6.15938 18.6266 1.73306 13.5 1.73306C8.37337 1.73306 4.21875 6.15769 4.21875 11.8125C4.21875 16.1528 6.66731 19.8619 10.125 21.3519V27H0V20.25L1.6875 23.625H8.4375V22.7661C3.48975 21.0144 0 16.7704 0 11.8125C0 5.28863 6.04462 0 13.5 0C20.9554 0 27 5.28863 27 11.8125C27 16.7704 23.5103 21.0128 18.5625 22.7661V23.625Z" fill="#9C7339"/>
</g>
<defs>
<clipPath id="clip0_32_307">
<rect width="27" height="27" fill="white"/>
</clipPath>
</defs>
</svg>
